<?xml version="1.0" encoding="UTF-8" ?>
<!DOCTYPE svg PUBLIC "-//W3C//DTD SVG 1.1//EN" "http://www.w3.org/Graphics/SVG/1.1/DTD/svg11.dtd">
<svg width="345pt" height="353pt" viewBox="0 0 345 353" version="1.1" xmlns="http://www.w3.org/2000/svg">
<g id="#000000ff">
<path fill="#000000" opacity="1.00" d=" M 139.67 2.51 C 155.18 2.47 170.70 2.21 186.21 2.67 C 186.22 8.28 186.19 13.88 186.25 19.48 C 181.95 19.75 177.64 19.73 173.35 19.66 C 173.34 18.04 173.32 16.43 173.32 14.82 C 172.84 14.69 171.87 14.41 171.39 14.27 C 169.94 17.76 171.90 21.63 170.57 24.99 C 172.13 29.69 169.62 34.85 171.21 39.69 C 172.64 39.68 174.07 39.66 175.50 39.65 C 175.48 44.58 175.44 49.52 175.41 54.46 C 167.78 54.49 160.15 54.47 152.52 54.40 C 152.45 49.81 152.46 45.22 152.50 40.64 C 153.29 40.60 154.86 40.51 155.65 40.47 C 155.68 31.85 155.73 23.24 155.62 14.63 C 154.83 14.63 153.24 14.63 152.45 14.63 C 152.37 16.83 152.32 19.04 152.25 21.24 C 148.07 21.32 143.90 21.32 139.72 21.25 C 139.63 15.01 139.70 8.76 139.67 2.51 Z" />
<path fill="#000000" opacity="1.00" d=" M 198.70 1.00 C 202.44 2.38 206.20 3.70 210.01 4.88 C 212.70 5.82 215.39 6.76 218.07 7.73 C 217.29 11.77 215.97 15.68 214.32 19.45 C 213.73 19.50 212.53 19.59 211.93 19.64 C 211.50 21.11 211.05 22.57 210.56 24.01 C 210.60 24.52 210.67 25.54 210.70 26.05 C 213.58 26.46 216.41 27.07 219.26 27.66 C 219.91 25.41 220.48 23.13 220.69 20.79 C 219.88 20.66 218.24 20.40 217.43 20.27 C 218.99 16.37 220.21 12.33 222.02 8.53 C 228.44 9.65 234.49 12.35 240.87 13.78 C 240.07 18.11 238.64 22.28 237.28 26.46 C 236.16 26.53 235.04 26.60 233.92 26.68 C 232.11 34.28 229.20 41.56 227.26 49.12 C 228.47 49.67 229.68 50.22 230.90 50.77 C 229.71 55.30 227.82 59.60 226.30 64.02 C 219.65 63.07 213.46 60.25 207.07 58.31 C 209.09 51.97 212.79 46.21 214.00 39.62 C 211.62 39.42 209.24 39.23 206.86 39.10 C 205.94 45.33 204.38 51.43 203.20 57.61 C 196.86 55.84 190.74 53.32 184.26 52.09 C 184.21 47.37 186.31 43.08 187.71 38.68 C 188.92 38.75 190.14 38.81 191.36 38.88 C 193.39 31.12 196.45 23.62 197.82 15.71 C 196.93 15.59 195.16 15.36 194.27 15.25 C 194.65 10.21 197.24 5.75 198.70 1.00 Z" />
<path fill="#000000" opacity="1.00" d=" M 97.45 19.70 C 101.99 17.49 106.32 14.79 111.13 13.17 C 119.42 22.59 128.42 31.34 137.04 40.46 C 138.48 40.20 139.88 39.72 141.28 39.30 C 143.31 43.47 145.95 47.41 146.93 52.01 C 140.41 54.51 134.52 58.38 127.99 60.85 C 126.64 56.95 122.98 53.44 123.57 49.17 C 124.09 48.91 125.14 48.40 125.66 48.14 C 125.48 47.29 125.30 46.45 125.12 45.61 C 121.66 45.98 118.38 47.44 115.62 49.52 C 114.82 50.86 114.28 52.33 113.63 53.74 C 115.07 53.04 116.57 52.51 118.10 52.03 C 119.81 55.95 122.57 59.53 122.88 63.92 C 116.71 66.01 111.45 70.34 105.06 71.75 C 103.29 67.37 100.89 63.28 99.08 58.92 C 100.59 58.29 102.09 57.65 103.60 57.03 C 101.58 44.59 99.73 32.10 97.45 19.70 M 112.48 33.82 C 112.46 35.45 112.45 37.08 112.44 38.72 C 113.50 38.65 114.57 38.59 115.63 38.52 C 115.61 38.00 115.55 36.95 115.53 36.42 C 114.51 35.56 113.50 34.69 112.48 33.82 Z" />
<path fill="#000000" opacity="1.00" d=" M 257.82 24.06 C 259.16 24.34 260.56 24.56 261.71 25.39 C 266.74 28.57 271.38 32.36 276.66 35.15 C 276.81 39.82 272.02 42.55 270.04 46.41 C 268.72 46.41 267.40 46.40 266.08 46.41 C 262.14 53.02 257.67 59.31 253.51 65.78 C 254.46 66.69 256.26 67.78 255.44 69.35 C 253.45 72.93 250.72 76.05 248.89 79.73 C 246.00 80.01 243.90 77.91 241.73 76.38 C 237.72 73.45 233.65 70.59 229.50 67.87 C 231.92 63.95 234.65 60.23 237.04 56.30 C 238.38 56.74 239.72 57.20 241.06 57.66 C 245.06 51.14 249.04 44.61 253.38 38.31 C 253.37 38.01 253.34 37.40 253.33 37.09 C 252.06 36.34 250.52 35.06 251.38 33.41 C 253.30 30.15 255.90 27.33 257.82 24.06 Z" />
<path fill="#000000" opacity="1.00" d=" M 36.18 61.87 C 43.52 54.88 51.34 48.41 58.73 41.48 C 63.52 41.50 68.30 41.48 73.09 41.50 C 76.30 46.13 82.38 49.33 82.68 55.49 C 84.24 55.58 85.81 55.67 87.38 55.77 C 85.85 56.07 84.32 56.36 82.79 56.64 C 84.20 56.52 85.60 56.40 87.00 56.28 C 89.63 59.86 92.83 63.00 95.36 66.65 C 96.05 71.51 95.20 76.49 95.43 81.40 C 88.73 87.38 81.63 92.89 74.96 98.90 C 73.82 99.82 72.64 101.03 71.04 100.83 C 67.83 98.39 65.37 95.10 62.13 92.67 C 62.88 91.72 63.65 90.77 64.43 89.84 C 64.45 89.40 64.49 88.51 64.51 88.07 C 59.45 82.59 54.46 77.03 49.89 71.14 C 48.42 71.53 47.00 72.06 45.60 72.64 C 42.36 69.14 39.47 65.34 36.18 61.87 M 63.74 56.40 C 62.55 57.59 61.36 58.79 60.17 59.99 C 61.26 61.20 62.36 62.41 63.45 63.63 C 63.92 63.62 64.84 63.60 65.31 63.59 C 66.47 62.42 67.63 61.26 68.78 60.09 C 67.85 58.88 66.92 57.67 66.01 56.45 C 65.25 56.43 64.49 56.41 63.74 56.40 M 72.03 73.11 C 73.19 74.80 74.22 76.76 76.08 77.79 C 78.64 78.08 79.99 75.44 81.71 74.03 C 80.17 72.37 78.62 70.72 77.06 69.09 C 75.39 70.44 73.72 71.79 72.03 73.11 Z" />
<path fill="#000000" opacity="1.00" d=" M 290.83 46.50 C 291.24 46.47 292.05 46.42 292.45 46.39 C 296.18 51.12 300.43 55.38 304.41 59.88 C 301.55 68.13 297.97 76.19 296.12 84.74 C 298.23 82.80 300.32 80.82 302.50 78.96 C 302.51 77.50 301.97 75.93 302.49 74.53 C 304.70 71.97 307.42 69.89 309.84 67.54 C 310.23 67.51 311.02 67.46 311.42 67.43 C 315.86 72.07 320.04 76.95 324.56 81.52 C 321.68 84.01 318.92 86.64 315.94 89.00 C 314.33 90.45 311.76 88.68 310.18 90.16 C 303.05 96.35 295.75 102.36 288.58 108.51 C 286.56 110.16 284.84 112.32 282.42 113.40 C 279.48 110.77 277.15 107.54 274.28 104.84 C 276.04 94.90 281.67 86.00 283.48 76.06 C 283.16 76.51 282.53 77.41 282.22 77.86 C 279.57 79.68 276.80 81.40 274.56 83.72 C 273.66 85.00 274.94 86.54 275.79 87.40 C 274.16 91.05 270.89 93.53 268.45 96.60 C 268.00 96.60 267.11 96.62 266.66 96.63 C 262.03 91.48 257.27 86.46 252.47 81.47 C 256.13 78.46 259.66 75.29 263.11 72.04 C 263.59 72.75 264.54 74.16 265.02 74.87 C 267.73 74.39 269.55 72.19 271.46 70.41 C 275.34 66.58 279.50 63.07 283.60 59.49 C 283.58 59.03 283.53 58.10 283.51 57.64 C 282.83 56.90 282.16 56.17 281.49 55.43 C 284.63 52.48 287.77 49.53 290.83 46.50 Z" />
<path fill="#000000" opacity="1.00" d=" M 156.01 86.51 C 163.72 86.09 171.35 84.86 178.97 83.64 C 186.76 82.78 194.28 86.17 200.79 90.11 C 206.45 93.39 210.39 98.74 214.24 103.87 C 221.89 114.44 227.75 126.19 232.70 138.23 C 235.08 144.19 237.38 150.32 237.78 156.79 C 237.17 156.67 235.93 156.44 235.31 156.33 C 235.54 161.45 235.73 166.61 234.84 171.68 C 233.76 179.07 235.32 186.89 232.44 193.98 C 231.14 197.17 230.79 200.77 231.68 204.12 C 233.77 208.83 239.12 212.34 238.55 218.01 C 237.87 228.36 231.87 237.57 225.05 245.04 C 218.48 251.99 211.24 258.60 202.49 262.67 C 195.47 265.97 190.54 272.32 183.84 276.12 C 179.27 277.55 174.39 276.04 169.95 274.73 C 166.71 274.01 164.91 271.03 162.75 268.83 C 162.11 270.37 161.50 271.93 160.97 273.52 C 160.35 273.51 159.73 273.51 159.12 273.52 C 155.59 269.46 150.47 266.39 144.97 266.50 C 142.42 266.48 140.17 267.83 137.88 268.74 C 130.68 258.96 122.91 249.57 114.48 240.83 C 114.48 238.35 114.73 235.72 113.01 233.69 C 111.08 231.58 113.39 229.21 114.29 227.18 C 112.39 217.62 111.94 207.85 110.72 198.20 C 110.38 192.48 110.18 186.76 110.28 181.04 C 110.19 176.76 113.20 173.21 113.40 168.99 C 113.38 165.59 111.61 162.49 111.50 159.09 C 111.35 156.41 111.35 153.72 111.38 151.04 C 111.13 151.86 110.89 152.69 110.65 153.51 C 110.55 150.86 110.13 148.15 110.64 145.52 C 111.67 142.89 113.89 140.82 114.56 138.05 C 114.83 133.92 114.26 129.77 114.58 125.63 C 114.74 129.90 114.60 134.18 115.09 138.43 C 115.41 134.21 115.23 129.98 115.27 125.76 C 119.33 121.96 123.96 117.62 123.73 111.56 C 125.09 111.51 126.45 111.47 127.82 111.41 C 131.86 103.37 137.90 96.25 145.19 90.97 C 148.39 88.72 151.99 86.64 156.01 86.51 M 143.82 120.13 C 143.75 121.94 143.67 123.75 143.58 125.56 C 142.04 125.47 140.50 125.38 138.97 125.29 C 137.16 128.67 134.60 131.55 131.44 133.71 C 131.45 136.26 130.10 139.88 132.87 141.39 C 141.83 142.65 150.72 139.97 159.70 140.33 C 167.09 139.16 174.55 139.57 181.98 139.66 C 186.33 139.89 189.95 136.79 191.67 133.01 C 189.15 127.24 183.32 124.25 178.01 121.54 C 174.91 119.97 171.46 119.00 167.96 119.27 C 163.81 119.29 160.12 121.65 155.97 121.68 C 151.85 122.02 147.73 121.44 143.82 120.13 M 151.56 150.60 C 147.07 154.28 141.71 158.59 141.55 164.93 C 141.38 169.51 140.62 175.11 144.53 178.45 C 148.72 181.49 154.21 180.48 159.05 180.52 C 162.14 180.71 164.55 178.60 166.42 176.41 C 166.73 173.43 167.28 170.48 167.66 167.51 C 168.49 166.73 169.31 165.94 170.14 165.16 C 171.74 167.05 173.06 169.14 174.20 171.33 C 175.69 171.48 177.18 171.61 178.67 171.74 C 179.59 170.48 180.39 169.15 180.90 167.67 C 178.26 165.15 175.60 162.63 173.03 160.03 C 169.96 156.98 167.90 153.02 164.42 150.37 C 160.83 147.38 155.03 147.41 151.56 150.60 M 131.77 152.39 C 130.88 154.44 128.83 156.55 129.90 158.92 C 131.44 162.23 134.52 164.43 137.12 166.87 C 137.92 165.27 138.89 163.74 139.37 162.01 C 140.49 157.77 135.45 155.96 133.75 152.70 C 133.09 152.60 132.43 152.49 131.77 152.39 M 149.51 184.83 C 149.46 186.02 149.42 187.22 149.39 188.42 C 153.46 188.68 157.71 189.08 161.57 187.43 C 161.53 186.26 161.51 185.09 161.48 183.92 C 160.89 183.50 159.72 182.66 159.14 182.24 C 155.76 182.35 152.54 183.41 149.51 184.83 Z" />
<path fill="#000000" opacity="1.00" d=" M 317.11 96.89 C 322.27 93.33 328.64 96.58 334.10 97.64 C 337.28 102.71 340.26 107.92 343.68 112.84 C 343.41 113.90 343.16 114.96 342.85 116.01 C 341.47 120.26 342.96 126.64 338.02 128.77 C 336.45 129.58 334.78 130.14 333.11 130.68 C 330.70 126.27 326.97 122.69 325.04 118.02 C 326.21 117.41 327.39 116.79 328.57 116.18 C 327.68 114.55 326.82 112.91 325.98 111.25 C 324.42 111.38 322.78 111.41 321.41 112.27 C 315.45 115.54 309.50 118.83 303.46 121.96 C 304.98 124.41 306.03 127.40 308.72 128.83 C 309.39 128.35 310.73 127.38 311.40 126.90 C 311.38 125.55 311.36 124.21 311.34 122.86 C 314.78 121.30 318.06 119.29 321.77 118.39 C 323.97 123.69 327.03 128.57 329.41 133.79 C 321.11 138.47 312.98 143.46 304.95 148.58 C 304.46 148.55 303.47 148.49 302.98 148.46 C 298.62 140.57 294.30 132.64 289.45 125.05 C 289.85 120.53 291.13 116.16 291.73 111.67 C 299.92 106.31 308.75 101.99 317.11 96.89 Z" />
<path fill="#000000" opacity="1.00" d=" M 2.44 114.17 C 5.06 110.24 7.49 106.20 9.85 102.11 C 22.73 104.02 35.04 108.81 47.91 110.59 C 48.25 108.85 49.25 108.04 50.91 108.18 C 54.58 109.77 57.75 112.29 61.33 114.07 C 61.34 114.40 61.37 115.06 61.38 115.39 C 57.70 121.08 54.17 126.88 50.87 132.80 C 47.31 131.00 43.96 128.82 40.46 126.92 C 40.60 125.42 40.75 123.92 40.89 122.43 C 40.16 122.50 38.69 122.64 37.95 122.72 C 36.52 125.07 35.08 127.42 33.60 129.75 C 33.67 130.86 33.74 131.97 33.81 133.08 C 34.09 133.16 34.65 133.32 34.93 133.40 C 35.75 132.12 37.32 130.38 38.94 131.72 C 41.92 133.27 44.65 135.25 47.56 136.91 C 47.54 137.26 47.50 137.96 47.47 138.31 C 43.89 143.63 40.99 149.38 37.27 154.61 C 33.36 151.86 29.22 149.46 25.11 147.03 C 25.94 145.61 26.74 144.17 27.61 142.78 C 19.48 133.02 10.75 123.78 2.44 114.17 M 23.31 118.42 C 23.36 118.97 23.44 120.08 23.48 120.63 C 24.62 121.30 25.66 122.36 27.07 122.35 C 27.34 121.21 27.52 120.05 27.70 118.89 C 26.24 118.73 24.78 118.58 23.31 118.42 Z" />
<path fill="#000000" opacity="1.00" d=" M 147.62 160.21 C 151.23 160.01 153.40 164.00 157.00 163.56 C 159.43 163.75 161.13 161.83 162.83 160.42 C 163.94 160.34 165.05 160.27 166.17 160.21 C 165.33 164.36 160.81 165.94 157.09 166.38 C 153.48 166.90 150.19 165.03 147.52 162.81 C 147.54 162.16 147.59 160.86 147.62 160.21 Z" />
<path fill="#000000" opacity="1.00" d=" M 199.73 300.75 C 213.31 300.55 226.90 300.75 240.49 300.65 C 240.63 305.95 240.61 311.26 240.56 316.56 C 235.90 316.55 231.25 316.53 226.59 316.60 C 225.88 315.91 225.17 315.22 224.46 314.54 C 222.52 314.58 220.57 314.63 218.63 314.68 C 218.62 316.63 218.62 318.58 218.64 320.53 C 222.87 320.58 227.10 320.58 231.34 320.63 C 231.39 324.22 231.58 327.82 231.23 331.40 C 229.40 332.04 225.74 333.32 223.92 333.96 C 229.66 333.76 235.42 333.72 241.17 333.84 C 241.31 340.23 240.24 346.60 240.63 353.00 L 199.84 353.00 C 199.78 348.24 199.78 343.48 199.79 338.72 C 201.09 338.63 202.40 338.54 203.70 338.46 C 203.74 330.51 203.78 322.57 203.67 314.62 C 202.87 314.61 201.26 314.59 200.46 314.58 C 200.22 309.97 199.79 305.37 199.73 300.75 M 219.35 338.72 C 221.33 338.71 223.30 338.69 225.28 338.67 C 225.26 336.20 226.23 334.02 227.87 332.20 C 225.05 332.34 222.23 332.43 219.41 332.47 C 219.38 334.55 219.36 336.63 219.35 338.72 Z" />
<path fill="#000000" opacity="1.00" d=" M 157.76 301.59 C 168.00 301.62 178.29 301.17 188.50 301.75 C 191.61 304.06 194.53 306.86 196.63 310.13 C 197.77 315.30 197.39 320.76 197.05 326.03 C 195.09 329.81 191.41 332.32 188.68 335.52 C 184.31 335.63 179.95 335.62 175.58 335.62 C 175.59 336.83 175.60 338.05 175.61 339.27 C 177.18 339.35 178.77 339.43 180.35 339.52 C 180.34 344.01 180.34 348.51 180.27 353.00 L 158.60 353.00 C 157.51 348.18 157.61 343.20 158.21 338.32 C 158.90 338.37 160.28 338.45 160.97 338.49 C 160.35 330.58 160.90 322.63 160.62 314.71 C 159.90 314.62 158.46 314.43 157.73 314.33 C 157.75 310.08 157.74 305.84 157.76 301.59 M 176.33 315.14 C 176.34 317.62 176.35 320.10 176.38 322.58 C 178.72 322.55 181.06 322.51 183.40 322.45 C 183.51 320.09 183.59 317.73 183.61 315.37 C 181.18 315.25 178.76 315.19 176.33 315.14 Z" />
<path fill="#000000" opacity="1.00" d=" M 110.93 337.41 C 114.24 325.36 118.30 313.52 121.84 301.54 C 126.67 301.51 131.49 301.51 136.31 301.49 C 140.52 313.73 143.90 326.24 148.22 338.44 C 149.59 338.46 150.97 338.49 152.35 338.53 C 152.35 343.35 152.36 348.18 152.29 353.00 L 130.72 353.00 C 130.60 348.58 130.60 344.17 130.66 339.76 C 132.15 339.65 133.65 339.56 135.14 339.46 C 134.63 338.68 133.61 337.13 133.11 336.35 C 129.50 336.79 124.04 334.68 122.45 339.16 C 123.39 339.31 125.26 339.61 126.20 339.76 C 126.20 344.17 126.20 348.58 126.17 353.00 L 105.68 353.00 C 105.53 347.91 105.55 342.82 105.59 337.73 C 107.37 337.62 109.15 337.52 110.93 337.41 M 127.61 321.46 C 127.52 323.11 127.43 324.77 127.35 326.43 C 128.45 326.39 129.55 326.36 130.66 326.33 C 130.19 324.79 129.72 323.24 129.26 321.70 C 128.85 321.64 128.02 321.52 127.61 321.46 Z" />
</g>
</svg>
