<svg xmlns="http://www.w3.org/2000/svg" width="324.183" height="214.638" id="chanel"><path d="M23.189 214.621c-.138-.016-.6-.064-1.038-.108a24.573 24.573 0 0 1-11.49-4.4A25.639 25.639 0 0 1 .72 195.325a26.576 26.576 0 0 1-.434-10.035A25.552 25.552 0 0 1 15.5 165.569a24.544 24.544 0 0 1 6.365-1.7 31.465 31.465 0 0 1 5.8 0 24.222 24.222 0 0 1 7.587 2.257A22.791 22.791 0 0 1 42.016 171a24.335 24.335 0 0 1 4.57 6.171l.3.548-1.057.782c-1.456 1.077-4.872 3.514-5.985 4.27l-.919.624-.378-.822a15.522 15.522 0 0 0-1.339-2.423 14.782 14.782 0 0 0-9.329-6.24 16.265 16.265 0 0 0-6.371.112 16.163 16.163 0 0 0-5.977 2.875 20.125 20.125 0 0 0-2.5 2.482A15.769 15.769 0 0 0 9.96 192.69a17.021 17.021 0 0 0 2.237 5.249 15.251 15.251 0 0 0 10.851 6.776 20.473 20.473 0 0 0 3.44 0 15.2 15.2 0 0 0 9.987-5.616 15.789 15.789 0 0 0 1.811-2.827 6.637 6.637 0 0 1 .507-.895c.026 0 1.825 1.27 4 2.822l3.952 2.822-.4.757a25.3 25.3 0 0 1-3.592 4.964A24.072 24.072 0 0 1 35.4 212.2a24.63 24.63 0 0 1-7.91 2.326c-.634.074-3.856.146-4.301.095Zm33.785-25.691V164.2h9.592v17.752h25.053V164.2h9.592v49.462h-9.592V191.9H66.566v21.76h-9.592Zm53.926 20.346 10.962-24.731 9.018-20.347h13.457l10.9 24.426c6 13.434 10.962 24.563 11.038 24.73l.137.3h-11.484l-2.217-4.9-2.217-4.9-12.834.018-12.834.018-2.192 4.885-2.192 4.885h-11.485l1.944-4.384Zm35.535-15.4c-.04-.175-8.754-19.652-8.792-19.652s-8.3 19.315-8.435 19.685c-.015.041 3.295.067 8.613.067 7.349 0 8.635-.015 8.616-.1Zm27.714-4.947V164.2h13.492l10.559 14.831 10.56 14.829.018-14.83.018-14.83h9.663v49.463l-3.877-.019-3.877-.019-13.391-18.59c-7.365-10.225-13.416-18.591-13.445-18.593s-.054 8.372-.054 18.608v18.611h-9.663Zm61.774 0V164.2H270.5v9.95h-24.91v9.878h23.049v9.95h-23.051v9.878h28.489v9.806h-38.152Zm51.681 0V164.2h9.663v39.655h26.914v9.806h-36.576Zm-165.6-37.31a77.59 77.59 0 0 1-31.09-8.477 73.211 73.211 0 0 1-18.663-13.831 71.1 71.1 0 0 1-10.931-13.669l-1.265-2.086 1.795-.952c3.5-1.855 19.439-10.018 19.564-10.018a15.4 15.4 0 0 1 1.464 1.992 52.324 52.324 0 0 0 36.514 22.63 75.965 75.965 0 0 0 13.55-.1 63.158 63.158 0 0 0 9.541-2.169c.16-.053-.145-.549-.848-1.376a74.814 74.814 0 0 1-14.211-69.042 75.343 75.343 0 0 1 13.3-25.639 20.112 20.112 0 0 0 1.6-2.149c0-.292-4.619-1.521-7.646-2.035a60.294 60.294 0 0 0-16.225-.218 54.537 54.537 0 0 0-19.971 7.369 52.677 52.677 0 0 0-15.703 15.325l-1.847 2.753-2.352-1.235c-1.293-.679-6.1-3.168-10.674-5.532s-8.337-4.31-8.355-4.325c-.073-.064 2.793-4.622 3.973-6.319a86.368 86.368 0 0 1 14.641-15.7A75.732 75.732 0 0 1 119.491.2a105.735 105.735 0 0 1 12.678 0 72.594 72.594 0 0 1 26.779 7.574l4.132 2.06 1.384-.788a79.217 79.217 0 0 1 9.224-4.262 76.214 76.214 0 0 1 44.423-2.656 74.2 74.2 0 0 1 34.816 19.361 75.055 75.055 0 0 1 12.952 16.476l.514.894-8.365 4.315c-4.6 2.374-9.413 4.865-10.7 5.537L245 49.928l-1.761-2.657a52.118 52.118 0 0 0-38.464-23.093 58.889 58.889 0 0 0-15.6.9 42.057 42.057 0 0 0-5.612 1.6 15.613 15.613 0 0 0 1.263 1.672 75.674 75.674 0 0 1 16.282 39 104.6 104.6 0 0 1 .1 15.969 74.942 74.942 0 0 1-16.05 39.174c-2.011 2.475-1.925 2.3-1.28 2.553.3.118 1.73.512 3.167.876a53.4 53.4 0 0 0 22.55.75 51.9 51.9 0 0 0 33.3-21.867c.723-1.065 1.377-2.007 1.452-2.094a24.182 24.182 0 0 1 3.984 1.77c4.193 2.1 17.325 8.9 17.466 9.038.235.235-3.951 6.447-6.517 9.674a105.27 105.27 0 0 1-11.843 11.829 75.314 75.314 0 0 1-82.52 7.878l-1.9-1.035-2.358 1.247a75.315 75.315 0 0 1-38.651 8.5Zm43.607-42.935a53.015 53.015 0 0 0 11.572-27.848 67.873 67.873 0 0 0-.387-13.271 49.917 49.917 0 0 0-9.49-22.24c-.936-1.242-2.3-2.9-3.028-3.691l-1.324-1.434-1.231 1.335a62.854 62.854 0 0 0-5.69 7.554 51.24 51.24 0 0 0-6.25 38.027 53.974 53.974 0 0 0 11.8 23.083l1.316 1.509.576-.545c.316-.298 1.279-1.414 2.139-2.479Z"></path></svg>