<?xml version="1.0" encoding="utf-8"?>
<!-- Generator: Adobe Illustrator 25.0.1, SVG Export Plug-In . SVG Version: 6.00 Build 0)  -->
<svg version="1.0" id="Layer_1" xmlns="http://www.w3.org/2000/svg" xmlns:xlink="http://www.w3.org/1999/xlink" x="0px" y="0px"
	 viewBox="0 0 268 156" style="enable-background:new 0 0 268 156;" xml:space="preserve">
<style type="text/css">
	.st0{fill:#444444;}
	.st1{fill:none;}
</style>
<path class="st0" d="M73.1,102.3c6.8,0,13.1-1.5,20.3-4.9v5.4c-7.3,3.4-13.5,4.9-20.3,4.9c-17.3,0-31.5-12.6-31.5-30.8
	c0-1,0-1.9,0.1-2.9C43.1,90.8,56.7,102.3,73.1,102.3z M50.4,71.5C50.4,58,60.7,49,73.1,49c7.2,0,14.3,2.2,20.3,6.2v5.4
	c-6-4-13.1-6.2-20.3-6.2c-11.4,0-21.3,7.6-22.6,19.8C50.5,73.3,50.4,72.4,50.4,71.5z M171.1,76.9c0,17-13.8,30.7-30.8,30.7
	c-17,0-30.7-13.8-30.7-30.7c0-1,0-1.8,0.1-2.8c1.5,16.9,16.4,29.4,33.3,27.9c14.8-1.3,26.6-13.1,27.9-27.9
	C171.1,75.1,171.1,76,171.1,76.9z M162.4,71.4c0-12.2-9.9-22-22.1-22.1c-12.2,0-22,9.9-22,22.1l0,0c0,0.9,0,1.9,0.2,2.8
	c1.2-12.1,11.9-21,24-19.8c10.5,1,18.8,9.3,19.8,19.8C162.4,73.3,162.4,72.3,162.4,71.4z M226.3,90.2c0,10.3-9.3,17.5-20.7,17.5
	c-8.3,0-16-2.9-21.1-9.3l3-2.4c4.9,4.3,11.3,6.2,18.1,6.2c10.4,0,19.1-6.1,20.5-14.9C226.3,88.3,226.3,89.2,226.3,90.2z M217.8,84.8
	c0,1-0.1,2-0.4,3c-3.7-10.3-31.3-6.8-31.3-25.8c0-0.9,0.1-1.8,0.2-2.7C189.1,76.4,217.8,72.1,217.8,84.8z M222.1,51
	c1.1,0.8,2.1,1.8,2.9,2.8l-5.8,5.3c-3.7-3.6-8.6-5.5-13.8-5.4c-4.9,0-9,1.9-10.4,5.4c-0.3-0.8-0.5-1.7-0.5-2.6
	c0-5.4,4.8-8.3,10.9-8.3c5.1-0.1,10.1,1.8,13.8,5.4L222.1,51z"/>
<rect x="34" y="43" class="st1" width="200" height="70"/>
</svg>
