<?xml version="1.0" encoding="utf-8"?>
<!-- Generator: Adobe Illustrator 22.1.0, SVG Export Plug-In . SVG Version: 6.00 Build 0)  -->
<svg version="1.1" id="レイヤー_1" xmlns="http://www.w3.org/2000/svg" xmlns:xlink="http://www.w3.org/1999/xlink" x="0px"
	 y="0px" viewBox="0 0 300 150" style="enable-background:new 0 0 300 150;" xml:space="preserve">
<style type="text/css">
	.st0{fill:#E41F1F;stroke:#E41F1F;stroke-width:3.636276e-02;}
	.st1{fill:#E41F1F;}
</style>
<g>
	<title>DANTON</title>
	<g>
		<g>
			<path class="st0" d="M138.2,93.9v-5.2h3.5v0.6h-2.8v1.6h2.4v0.6h-2.4v2.3H138.2z"/>
			<path class="st0" d="M142.6,93.9v-5.2h2.3c0.5,0,0.8,0,1,0.1c0.2,0.1,0.4,0.3,0.6,0.5c0.1,0.2,0.2,0.5,0.2,0.8
				c0,0.4-0.1,0.7-0.4,0.9c-0.2,0.3-0.6,0.4-1.1,0.5c0.2,0.1,0.3,0.2,0.4,0.3c0.2,0.2,0.4,0.4,0.6,0.7l0.9,1.4h-0.9l-0.7-1.1
				c-0.2-0.3-0.4-0.5-0.5-0.7c-0.1-0.2-0.2-0.3-0.3-0.3c-0.1-0.1-0.2-0.1-0.3-0.1c-0.1,0-0.2,0-0.4,0h-0.8v2.3H142.6z M143.3,91h1.5
				c0.3,0,0.6,0,0.7-0.1c0.2-0.1,0.3-0.2,0.4-0.3c0.1-0.1,0.1-0.3,0.1-0.5c0-0.2-0.1-0.4-0.3-0.6c-0.2-0.2-0.5-0.2-0.8-0.2h-1.6V91z
				"/>
			<path class="st0" d="M147.2,93.9l2-5.2h0.7l2.1,5.2h-0.8l-0.6-1.6h-2.2l-0.6,1.6H147.2z M148.7,91.7h1.8l-0.5-1.4
				c-0.2-0.4-0.3-0.8-0.4-1.1c-0.1,0.3-0.2,0.7-0.3,1L148.7,91.7z"/>
			<path class="st0" d="M152.6,93.9v-5.2h0.7l2.7,4.1v-4.1h0.7v5.2H156l-2.7-4.1v4.1H152.6z"/>
			<path class="st0" d="M161.5,92l0.7,0.2c-0.1,0.6-0.4,1-0.8,1.3c-0.4,0.3-0.8,0.4-1.4,0.4c-0.6,0-1-0.1-1.4-0.3
				c-0.3-0.2-0.6-0.6-0.8-1c-0.2-0.4-0.3-0.9-0.3-1.4c0-0.5,0.1-1,0.3-1.4c0.2-0.4,0.5-0.7,0.9-0.9c0.4-0.2,0.8-0.3,1.3-0.3
				c0.5,0,1,0.1,1.3,0.4c0.4,0.3,0.6,0.6,0.7,1.1l-0.7,0.2c-0.1-0.4-0.3-0.6-0.5-0.8c-0.2-0.2-0.5-0.3-0.9-0.3c-0.4,0-0.7,0.1-1,0.3
				c-0.3,0.2-0.5,0.4-0.6,0.8c-0.1,0.3-0.2,0.7-0.2,1c0,0.4,0.1,0.8,0.2,1.2c0.1,0.3,0.3,0.6,0.6,0.7c0.3,0.2,0.6,0.2,0.9,0.2
				c0.4,0,0.7-0.1,1-0.3C161.2,92.8,161.4,92.5,161.5,92z"/>
			<path class="st0" d="M163.1,93.9v-5.2h3.7v0.6h-3v1.6h2.9v0.6h-2.9v1.8h3.2v0.6H163.1z"/>
		</g>
		<g>
			<g>
				<g>
					<path class="st1" d="M152.4,40.1l-0.2,0.1L98,73.5l54.4,33.3l54.3-33.3L152.4,40.1z M152.4,104.1c-0.4-0.2-48.4-29.6-50-30.6
						c1.6-1,49.7-30.5,50-30.8c0.4,0.2,48.5,29.8,50.1,30.8C200.8,74.5,152.7,103.8,152.4,104.1z"/>
				</g>
			</g>
			<g>
				<g>
					<path class="st1" d="M122.2,66.7c-1.5,0-3.5,0.8-5.8,2.7v11.9h4.7c4.5,0,6.7-3.8,6.7-7.8C127.8,66.5,124,66.7,122.2,66.7z
						 M119.9,77.9v-6.7c0.8-0.6,1.8-0.7,2.4-0.7c0.6,0,2.3,0.3,2.3,3.3C124.6,76.4,123.7,77.9,119.9,77.9z"/>
				</g>
			</g>
			<path class="st1" d="M136.1,62c-4.1,3-4.8,15.4-1.3,19.4h-7.1c1-0.4,1.9-1,2.6-1.7c-1.2-2-2.2-10.2,1.3-17.9
				c-0.6-0.2-1.8-0.4-3,0l11.1-7v26.7h-3.5L136.1,62z"/>
			<polyline class="st1" points="142,55.1 142,81.4 145.5,81.4 145.5,55.1 			"/>
			<polygon class="st1" points="144,51.9 152.2,63.1 149.7,66.3 140.6,54 			"/>
			<polygon class="st1" points="152.4,46.5 152.4,81.4 149,81.4 149,48.7 			"/>
			<polyline class="st1" points="157,53 157,81.4 160.6,81.4 160.6,53 			"/>
			<polygon class="st1" points="181.6,64.4 181.6,81.4 178.1,81.4 178.1,62.2 			"/>
			<polygon class="st1" points="188.3,68.6 188.3,81.4 184.8,81.4 184.8,66.3 			"/>
			<path class="st1" d="M139.6,81.4h0.7c0.2-0.4,1-2,0.5-2.2c-0.5-0.2-0.8,0.7-1.2,2.1"/>
			<rect x="130.7" y="71.1" class="st1" width="7.9" height="3.6"/>
			<polygon class="st1" points="164.6,58.4 153.3,51.7 153.3,46.8 164.6,53.5 			"/>
			<polygon class="st1" points="184.8,81.4 181.5,72.4 181.6,64.4 185.1,73.2 			"/>
			<g>
				<g>
					<path class="st1" d="M170.3,57.7c-2.1,0-6.3,2.8-6.3,11.9c0,6,2.1,12.2,6.2,12.2c3.6,0,6.3-6.3,6.3-12.2
						C176.5,60.5,172.1,57.7,170.3,57.7z M170.3,77.5c-1.7,0-2.5-4-2.5-7.9c0-5.9,1.7-7.7,2.5-7.7c0.7,0,2.5,1.8,2.5,7.7
						C172.8,73.4,171.8,77.5,170.3,77.5z"/>
				</g>
			</g>
			<rect x="120.1" y="84.6" class="st1" width="64.9" height="1.6"/>
			<line class="st1" x1="152.4" y1="40.1" x2="152" y2="40.1"/>
		</g>
		<g>
			<g>
				<path class="st0" d="M174,43.8l0-0.5l-1.6,0.2l0,0.3L174,43.8z"/>
				<path class="st0" d="M189.3,54.2l0-0.3l1.6-0.2l0,0.5L189.3,54.2z"/>
				<path class="st0" d="M164.1,45.1l2.7-4.4l1.5,0.9c0.3,0.2,0.6,0.4,0.7,0.5c0.2,0.2,0.4,0.5,0.4,0.7c0.1,0.3,0.1,0.7,0.1,1.1
					c-0.1,0.4-0.2,0.8-0.5,1.1c-0.2,0.3-0.4,0.6-0.7,0.8c-0.2,0.2-0.5,0.4-0.7,0.5c-0.2,0.1-0.4,0.1-0.6,0.2c-0.2,0-0.4,0-0.7-0.1
					c-0.2-0.1-0.5-0.2-0.8-0.4L164.1,45.1z M165,44.9l0.9,0.6c0.3,0.2,0.5,0.3,0.7,0.3c0.2,0,0.4,0.1,0.5,0c0.2-0.1,0.4-0.2,0.7-0.4
					c0.2-0.2,0.4-0.4,0.6-0.8c0.3-0.5,0.4-0.9,0.4-1.2c0-0.3-0.1-0.6-0.2-0.8c-0.1-0.2-0.4-0.3-0.7-0.6l-0.9-0.6L165,44.9z"/>
				<path class="st0" d="M168.6,47.8l2.7-4.4l3.2,1.9l-0.3,0.5l-2.6-1.6l-0.8,1.3l2.4,1.5l-0.3,0.5l-2.4-1.5l-0.9,1.5l2.7,1.6
					l-0.3,0.5L168.6,47.8z"/>
				<path class="st0" d="M172.6,50.3l2.7-4.4l1.7,1c0.3,0.2,0.5,0.3,0.6,0.5c0.2,0.2,0.3,0.3,0.4,0.5c0.1,0.2,0.1,0.4,0.1,0.6
					c0,0.2-0.1,0.5-0.2,0.7c-0.2,0.4-0.5,0.6-0.9,0.7c-0.4,0.1-0.9,0-1.5-0.4l-1.1-0.7l-1.1,1.8L172.6,50.3z M174.6,48.3l1.1,0.7
					c0.4,0.2,0.7,0.3,0.9,0.3c0.2,0,0.4-0.2,0.6-0.4c0.1-0.2,0.2-0.4,0.2-0.6c0-0.2-0.1-0.3-0.2-0.5c-0.1-0.1-0.3-0.2-0.5-0.4
					l-1.1-0.7L174.6,48.3z"/>
				<path class="st0" d="M177.9,50.6c0.4-0.7,1-1.2,1.6-1.4c0.6-0.2,1.3-0.1,1.9,0.3c0.4,0.2,0.7,0.6,0.9,1c0.2,0.4,0.3,0.8,0.2,1.3
					c0,0.5-0.2,0.9-0.5,1.3c-0.3,0.4-0.6,0.8-1,1c-0.4,0.2-0.8,0.4-1.3,0.3c-0.4,0-0.9-0.1-1.2-0.4c-0.4-0.3-0.7-0.6-0.9-1
					c-0.2-0.4-0.3-0.8-0.2-1.3C177.5,51.4,177.6,50.9,177.9,50.6z M178.4,50.9c-0.3,0.5-0.4,1-0.3,1.5c0.1,0.5,0.4,0.8,0.8,1.1
					c0.4,0.3,0.9,0.3,1.4,0.2c0.5-0.1,0.9-0.5,1.2-1c0.2-0.4,0.3-0.7,0.4-1c0-0.3,0-0.7-0.1-0.9c-0.1-0.3-0.4-0.5-0.7-0.7
					c-0.4-0.3-0.8-0.3-1.3-0.2C179.3,49.9,178.9,50.3,178.4,50.9z"/>
				<path class="st0" d="M182.2,54.2l0.6,0.3c-0.1,0.2-0.2,0.5-0.2,0.7c0,0.2,0.1,0.4,0.2,0.6c0.1,0.2,0.3,0.4,0.6,0.5
					c0.2,0.1,0.4,0.2,0.6,0.3c0.2,0,0.4,0,0.5,0c0.2-0.1,0.3-0.2,0.4-0.3c0.1-0.1,0.1-0.3,0.1-0.4c0-0.1-0.1-0.3-0.2-0.5
					c-0.1-0.1-0.3-0.3-0.6-0.7c-0.3-0.3-0.6-0.6-0.7-0.8c-0.1-0.2-0.2-0.5-0.2-0.7c0-0.2,0.1-0.4,0.2-0.6c0.1-0.2,0.3-0.4,0.6-0.5
					c0.2-0.1,0.5-0.1,0.8-0.1c0.3,0,0.6,0.2,0.9,0.3c0.3,0.2,0.6,0.4,0.8,0.7c0.2,0.3,0.3,0.5,0.3,0.8c0,0.3-0.1,0.6-0.2,0.8
					l-0.6-0.3c0.1-0.3,0.2-0.6,0.1-0.8c-0.1-0.2-0.3-0.5-0.6-0.7c-0.4-0.2-0.6-0.3-0.9-0.3c-0.2,0-0.4,0.1-0.5,0.3
					c-0.1,0.2-0.1,0.3-0.1,0.5c0,0.2,0.3,0.5,0.7,0.8c0.4,0.4,0.7,0.7,0.8,0.9c0.2,0.3,0.3,0.5,0.3,0.8c0,0.3-0.1,0.5-0.2,0.7
					c-0.1,0.2-0.3,0.4-0.6,0.5c-0.3,0.1-0.5,0.2-0.9,0.1c-0.3,0-0.6-0.2-0.9-0.3c-0.4-0.2-0.7-0.5-0.9-0.8c-0.2-0.3-0.3-0.6-0.3-0.9
					C181.9,54.8,182,54.5,182.2,54.2z"/>
				<path class="st0" d="M185.6,58.3l2.7-4.4l3.2,1.9l-0.3,0.5l-2.6-1.6l-0.8,1.3l2.4,1.5l-0.3,0.5l-2.4-1.5l-0.9,1.5l2.7,1.6
					l-0.3,0.5L185.6,58.3z"/>
				<path class="st0" d="M189.7,60.8l2.7-4.4l3.2,1.9l-0.3,0.5l-2.6-1.6l-0.8,1.3l2.4,1.5l-0.3,0.5l-2.4-1.5l-0.9,1.5l2.7,1.7
					l-0.3,0.5L189.7,60.8z"/>
			</g>
		</g>
		<g>
			<g>
				<path class="st0" d="M113.2,61.9l-2.7-4.4l0.9-0.5l3,2.5c0.3,0.2,0.5,0.4,0.6,0.5c0-0.2-0.1-0.5-0.2-0.8l-0.8-3.7l0.8-0.5
					l2.7,4.4l-0.6,0.3l-2.3-3.7l1,4.5l-0.5,0.3l-3.6-3l2.3,3.8L113.2,61.9z"/>
				<path class="st0" d="M117.8,59.1l-1-5.4l0.6-0.4l4.5,3.3l-0.7,0.4l-1.3-1l-1.8,1.1l0.3,1.6L117.8,59.1z M118,56.5l1.5-0.9
					l-1.2-0.9c-0.4-0.3-0.7-0.5-0.9-0.7c0.1,0.3,0.2,0.7,0.3,1L118,56.5z"/>
				<path class="st0" d="M122.4,56.2l-2.7-4.4l2-1.2c0.4-0.2,0.7-0.4,1-0.4c0.3,0,0.5,0,0.7,0.1c0.2,0.1,0.4,0.3,0.6,0.6
					c0.2,0.3,0.3,0.6,0.2,1c-0.1,0.3-0.3,0.7-0.7,1c0.2,0,0.4,0,0.5,0c0.3,0.1,0.5,0.1,0.8,0.3l1.5,0.7l-0.7,0.4l-1.2-0.6
					c-0.3-0.2-0.6-0.3-0.8-0.3c-0.2-0.1-0.4-0.1-0.5-0.1c-0.1,0-0.2,0-0.3,0c-0.1,0-0.2,0.1-0.3,0.2l-0.7,0.4l1.2,2L122.4,56.2z
					 M121.5,53.4l1.3-0.8c0.3-0.2,0.5-0.3,0.6-0.5c0.1-0.1,0.2-0.3,0.2-0.5c0-0.2,0-0.3-0.1-0.5c-0.1-0.2-0.3-0.3-0.5-0.4
					c-0.2,0-0.5,0-0.8,0.2l-1.4,0.9L121.5,53.4z"/>
				<path class="st0" d="M129.9,51c0.4,0,0.7,0,1-0.1l0.1,0.5c-0.4,0.1-0.8,0.1-1.3,0c-0.2,0.4-0.5,0.7-0.9,0.9
					c-0.4,0.2-0.8,0.4-1.3,0.4c-0.4,0-0.9-0.1-1.2-0.4c-0.4-0.2-0.7-0.6-1-1c-0.3-0.4-0.4-0.9-0.5-1.3c0-0.5,0-0.9,0.3-1.3
					c0.2-0.4,0.5-0.7,0.9-1c0.4-0.2,0.8-0.4,1.3-0.4c0.4,0,0.9,0.1,1.2,0.4c0.4,0.2,0.7,0.6,1,1c0.2,0.4,0.4,0.7,0.4,1.1
					C130,50.3,130,50.6,129.9,51z M128.2,51c0.4-0.1,0.8-0.1,1.1-0.1c0.1-0.5,0-1.1-0.4-1.7c-0.2-0.4-0.5-0.6-0.8-0.8
					c-0.3-0.2-0.6-0.3-0.9-0.3c-0.3,0-0.6,0.1-0.9,0.3c-0.4,0.3-0.7,0.6-0.8,1.1c-0.1,0.5,0,1,0.4,1.6c0.4,0.6,0.8,0.9,1.2,1.1
					c0.5,0.1,0.9,0.1,1.4-0.2c0.2-0.1,0.4-0.3,0.5-0.5c-0.3,0-0.5,0-0.7,0.1L128.2,51z"/>
				<path class="st0" d="M131.8,44.4l0.6-0.4l1.6,2.5c0.3,0.4,0.4,0.8,0.5,1.1c0.1,0.3,0,0.6-0.2,1c-0.2,0.3-0.5,0.6-0.9,0.9
					c-0.4,0.3-0.8,0.4-1.1,0.4c-0.3,0-0.7-0.1-0.9-0.3c-0.3-0.2-0.6-0.5-0.8-1l-1.6-2.5l0.6-0.4l1.6,2.5c0.2,0.4,0.4,0.6,0.6,0.8
					c0.2,0.1,0.4,0.2,0.6,0.2c0.2,0,0.5-0.1,0.7-0.2c0.4-0.3,0.7-0.5,0.7-0.9c0.1-0.3-0.1-0.7-0.4-1.3L131.8,44.4z"/>
				<path class="st0" d="M136.1,47.8l-2.7-4.4l3.2-2l0.3,0.5l-2.6,1.6l0.8,1.3l2.4-1.5l0.3,0.5l-2.4,1.5l0.9,1.5l2.7-1.7l0.3,0.5
					L136.1,47.8z"/>
			</g>
		</g>
	</g>
</g>
</svg>
