<svg xmlns="http://www.w3.org/2000/svg" viewBox="0 0 70.66 50"><path fill="#e31f19" d="M52.93 14c-3.46-2.93-8.69-3.13-11.92-1.93a15.46 15.46 0 0 0-5.12 3.12.72.72 0 0 1-1.12 0 15.46 15.46 0 0 0-5.12-3.12c-3.23-1.2-8.46-1-11.92 1.93a11.88 11.88 0 0 0-4 10.53 16.44 16.44 0 0 0 2.65 7.48 40.25 40.25 0 0 0 3.37 4.2 108.33 108.33 0 0 0 10.93 10.26c1.09.91 3.8 3.11 4 3.22a.95.95 0 0 0 1.4 0c.15-.11 2.86-2.31 3.95-3.22a108.33 108.33 0 0 0 10.83-10.22 40.25 40.25 0 0 0 3.37-4.2 16.44 16.44 0 0 0 2.65-7.48A11.88 11.88 0 0 0 52.93 14z"/><rect width="11.21" height="2.37" x="30.134" y="40.342" fill="#e31f19" rx=".46" transform="rotate(-44.48)"/><rect width="11.26" height="2.37" x="33.586" y="46.277" fill="#e31f19" rx=".46" transform="rotate(-42.39)"/><rect width="10.78" height="2.37" x="35.331" y="52.685" fill="#e31f19" rx=".46" transform="rotate(-40.65)"/><path fill="#fff" d="M41.08 34.2V32a3.9 3.9 0 0 0-.33-2.1c-.48-.81-1.46-.81-2.24-.81-.78 0-.92.2-.92.87v6.64c0 .36 0 .67.3.83a1.14 1.14 0 0 0 .51.11h1.08a1.5 1.5 0 0 0 1.16-.54c.55-.69.42-1.85.44-2.8zm-1.24.8c0 .47 0 .91-.33 1a1 1 0 0 1-.34.06c-.15 0-.3 0-.34-.26-.04-.26 0-4.75 0-5.1 0-.15 0-.34.25-.36a.64.64 0 0 1 .53.14c.19.15.26.32.26.84zm-1.98-8.64v-6.04a8.19 8.19 0 0 0 0-1 .58.58 0 0 0-.54-.53.62.62 0 0 0-.67.37c-.39 1.08-.68 2.21-1 3.32a2.25 2.25 0 0 1-.14.44c-.16.3-.47.29-.59 0-.3-.94-.54-1.9-.8-2.85-.13-.53-.3-1.37-1-1.23-.51.07-.54.65-.51 1.06v6.52a.81.81 0 0 0 .3.76.55.55 0 0 0 .7-.1 2.29 2.29 0 0 0 .21-1.39.53.53 0 0 1 .09-.39.23.23 0 0 1 .3 0 1.25 1.25 0 0 1 .23.46l.3.85c.09.25.3.62.61.62.48 0 .68-.89.84-1.41a2 2 0 0 1 .16-.43.19.19 0 0 1 .29-.05c.1.09.09.27.09.4 0 .53 0 1.12.22 1.33a.54.54 0 0 0 .69.09c.18-.16.21-.53.22-.8zm-3.02 4.48a11.58 11.58 0 0 0-.21-1.15.75.75 0 0 0-.34-.51 1.52 1.52 0 0 0-1-.08c-.33 0-.43.27-.52.73 0 .2-.08.45-.11.65-.32 2-.68 4.05-.92 6.09a1.35 1.35 0 0 0 0 .6.6.6 0 0 0 .88.19.79.79 0 0 0 .25-.44 3.62 3.62 0 0 1 .29-1c.1-.15.27-.18.58-.18.31 0 .4 0 .5.19a1.48 1.48 0 0 1 .17.54 5 5 0 0 0 .12.53.54.54 0 0 0 .36.41.56.56 0 0 0 .8-.56c0-.4-.09-.66-.14-1.06-.19-1.65-.45-3.3-.71-4.95zM34.21 34a.47.47 0 0 1-.9.08 1 1 0 0 1 0-.25c0-.29.16-1.3.45-1.3.29 0 .28.26.35.52a2.21 2.21 0 0 1 .1.95zm-4.33-3.45a6.55 6.55 0 0 0 0-1 .57.57 0 0 0-.54-.53.63.63 0 0 0-.67.37c-.39 1.08-.68 2.21-1 3.31a2.15 2.15 0 0 1-.14.45c-.16.3-.47.29-.59 0-.29-.94-.54-1.9-.79-2.85-.14-.54-.3-1.38-1-1.23-.52.07-.54.64-.52 1.06v6.53a.82.82 0 0 0 .3.76.54.54 0 0 0 .7-.1 2.26 2.26 0 0 0 .21-1.39.52.52 0 0 1 .09-.38.24.24 0 0 1 .31 0 1.26 1.26 0 0 1 .22.45c.11.32.19.54.31.85.12.31.29.63.6.63.49 0 .69-.9.85-1.41a1.57 1.57 0 0 1 .15-.43.19.19 0 0 1 .29-.06c.11.1.09.28.09.41 0 .52 0 1.12.22 1.33a.56.56 0 0 0 .7.09c.26-.14.28-.52.29-.78.01-.26 0-.66 0-1zM25 26.94a1.8 1.8 0 0 0 .12-.86v-6.45c0-.44-.14-.83-.62-.83s-.64.31-.63.78v2.23c0 .22-.06.64-.54.64a.54.54 0 0 1-.51-.6v-2.2c0-.24 0-.54-.21-.7a.69.69 0 0 0-.75-.07.83.83 0 0 0-.3.7v6.77c0 .67.2.89.63.89s.64-.41.64-1v-1.76c0-.47.1-.75.53-.75.43 0 .52.24.52.78v1.58a2.12 2.12 0 0 0 .09.8.52.52 0 0 0 .56.35.54.54 0 0 0 .47-.3zm5.57-7.7a.64.64 0 0 0-1.15-.11 2.08 2.08 0 0 0-.11.86v4.87c0 .51-.11 1-.5 1s-.48-.29-.48-.8v-4.95c0-.46.08-1.19-.53-1.3-.61-.11-.81.48-.81 1.08v3.7a8.6 8.6 0 0 0 .24 2.65 1.7 1.7 0 0 0 2.69.68 3.1 3.1 0 0 0 .75-2.34v-4.5a2.93 2.93 0 0 0-.1-.84zm18.54 2.13v-1.58a1.71 1.71 0 0 0-.08-.71.56.56 0 0 0-1 .34c0 .5 0 .65-.05 1.26 0 .2 0 .47-.22.51-.22.04-.32-.12-.41-.4-.09-.28-.13-.49-.2-.74-.14-.51-.18-1-.63-1.19a.68.68 0 0 0-.56 0c-.4.19-.33.91-.35 1.28v6.24c0 .48.18.9.74.83.56-.07.46-.75.48-1.17.02-.42 0-.8.21-.91a.29.29 0 0 1 .31.06 1.25 1.25 0 0 1 .27.54 9.51 9.51 0 0 0 .38 1.15.55.55 0 0 0 .63.35c.48-.1.45-.75.45-1.15zm-5.4 5.26c-.05-.4-.09-.66-.14-1.06-.23-1.66-.49-3.31-.75-5a11.58 11.58 0 0 0-.21-1.15.75.75 0 0 0-.34-.51 1.52 1.52 0 0 0-1-.08c-.33.05-.43.27-.53.73 0 .2-.07.45-.1.65-.33 2-.68 4.05-.92 6.09a1.21 1.21 0 0 0 0 .6.59.59 0 0 0 .88.19.81.81 0 0 0 .25-.44 3.55 3.55 0 0 1 .29-1c.1-.15.26-.19.58-.19.32 0 .4.05.5.2a1.42 1.42 0 0 1 .17.54 4.87 4.87 0 0 0 .12.52.58.58 0 0 0 .36.42.57.57 0 0 0 .84-.51zm-1.52-2.83a.47.47 0 0 1-.9.08 1 1 0 0 1 0-.25c0-.29.16-1.29.45-1.29.29 0 .28.26.35.51a2.21 2.21 0 0 1 .1.95zm2.33 6.55a2.06 2.06 0 0 1 .42 0h.35a1.05 1.05 0 0 0 .6-.15.69.69 0 0 0 .23-.54.52.52 0 0 0-.33-.47 3.56 3.56 0 0 0-.69-.1h-1.4a1.12 1.12 0 0 0-.36.05c-.25.08-.4.3-.4.78v7.05a.7.7 0 0 0 .3.49 1.12 1.12 0 0 0 .62.12h1.42a1.23 1.23 0 0 0 .33 0 .68.68 0 0 0 .27-.13.57.57 0 0 0 .21-.53.52.52 0 0 0-.1-.27.91.91 0 0 0-.56-.26h-.68a.76.76 0 0 1-.35-.11.62.62 0 0 1-.18-.47v-1.07a.89.89 0 0 1 .08-.47.64.64 0 0 1 .43-.2h.34a2 2 0 0 0 .34-.05.56.56 0 0 0 .42-.37.62.62 0 0 0-.09-.58.5.5 0 0 0-.29-.18 1.76 1.76 0 0 0-.33-.07 2.27 2.27 0 0 1-.72-.12c-.16-.12-.16-.27-.18-.44-.02-.17 0-1.15 0-1.33 0-.18.11-.53.3-.58z"/></svg>