<?xml version="1.0" encoding="utf-8"?>
<!-- Generator: Adobe Illustrator 18.0.0, SVG Export Plug-In . SVG Version: 6.00 Build 0)  -->
<!DOCTYPE svg PUBLIC "-//W3C//DTD SVG 1.1//EN" "http://www.w3.org/Graphics/SVG/1.1/DTD/svg11.dtd">
<svg version="1.1" id="Layer_1" xmlns="http://www.w3.org/2000/svg" xmlns:xlink="http://www.w3.org/1999/xlink" x="0px" y="0px"
	 viewBox="0 0 488 84.1" enable-background="new 0 0 488 84.1" xml:space="preserve">
<g>
	<path d="M0,1.4h25.1v61.3h39.1v20H0V1.4z"/>
	<path d="M125.4,1.4h25v48.5c0,4.8-0.7,9.3-2.2,13.6c-1.5,4.3-3.8,8-7,11.2c-3.2,3.2-6.5,5.4-10,6.7c-4.9,1.8-10.7,2.7-17.5,2.7
		c-3.9,0-8.2-0.3-12.9-0.8c-4.7-0.6-8.6-1.7-11.7-3.3c-3.1-1.6-6-4-8.6-7c-2.6-3-4.4-6.2-5.3-9.4c-1.5-5.2-2.3-9.8-2.3-13.8V1.4h25
		V51c0,4.4,1.2,7.9,3.7,10.4c2.5,2.5,5.9,3.7,10.2,3.7c4.3,0,7.7-1.2,10.2-3.7c2.5-2.5,3.7-5.9,3.7-10.5
		C125.4,51,125.4,1.4,125.4,1.4z"/>
	<path d="M248.9,1.4h25.1v28.5h27.4V1.4h25.2v81.4h-25.2V49.8h-27.4v32.9h-25.1V1.4z"/>
	<path d="M162.6,54.3h23.8c0.5,3.9,1.6,6.8,3.2,8.9c2.6,3.3,6.3,4.9,11.1,4.9c3.6,0,6.3-0.8,8.3-2.5c1.9-1.7,2.9-3.6,2.9-5.9
		c0-2.1-0.9-4-2.8-5.7c-1.8-1.7-6.1-3.2-12.8-4.7c-11-2.5-18.8-5.8-23.5-9.9c-4.7-4.1-7.1-9.3-7.1-15.7c0-4.2,1.2-8.1,3.6-11.8
		c2.4-3.7,6-6.6,10.9-8.8S191.6,0,200.1,0c10.4,0,18.3,1.9,23.7,5.8s8.9,11.4,10,19.8h-23.9c-0.6-3.7-1.9-6.3-4-8
		c-2-1.7-4.8-2.5-8.3-2.5c-2.9,0-5.1,0.6-6.6,1.9c-1.5,1.2-2.2,2.7-2.2,4.5c0,1.3,0.6,2.5,1.8,3.5c1.2,1.1,4,2.1,8.4,3
		c11,2.4,18.8,4.8,23.5,7.2c4.7,2.4,8.2,5.4,10.3,9c2.2,3.6,3.2,7.6,3.2,12c0,5.2-1.4,10-4.3,14.4c-2.9,4.4-6.9,7.7-12.1,10
		c-5.2,2.3-11.7,3.4-19.5,3.4c-13.8,0-23.3-2.7-28.6-8C166.3,70.8,163.3,62.6,162.6,54.3z"/>
</g>
<g>
	<g>
		<path d="M352.8,56.7v-17h3.4v6.7h6.7v-6.7h3.4v17h-3.4v-7.4h-6.7v7.4H352.8z"/>
		<path d="M385.2,56.7h-3.7l-1.5-3.9h-6.8l-1.4,3.9h-3.6l6.6-17h3.6L385.2,56.7z M378.9,49.9l-2.3-6.3l-2.3,6.3H378.9z"/>
		<path d="M387,56.7v-17h3.3l6.9,11.4V39.7h3.2v17H397l-6.8-11.1v11.1H387z"/>
		<path d="M404.1,39.7h6.2c1.4,0,2.5,0.1,3.2,0.3c1,0.3,1.8,0.8,2.6,1.6s1.2,1.7,1.6,2.8c0.4,1.1,0.6,2.4,0.6,4
			c0,1.4-0.2,2.6-0.5,3.6c-0.4,1.2-1,2.2-1.8,3c-0.6,0.6-1.4,1-2.4,1.4c-0.8,0.2-1.8,0.4-3,0.4h-6.4L404.1,39.7L404.1,39.7z
			 M407.5,42.5v11.3h2.6c1,0,1.6-0.1,2.1-0.2c0.6-0.1,1-0.4,1.4-0.7c0.4-0.3,0.7-0.9,0.9-1.6c0.2-0.8,0.3-1.8,0.3-3.1
			c0-1.3-0.1-2.3-0.3-3c-0.2-0.7-0.6-1.3-1-1.6c-0.4-0.4-0.9-0.7-1.6-0.8c-0.5-0.1-1.4-0.2-2.8-0.2H407.5z"/>
		<path d="M421.1,56.7v-17h5.1l3.1,11.6l3-11.6h5.1v17h-3.2V43.3L431,56.7h-3.3l-3.3-13.4v13.4C424.3,56.7,421.1,56.7,421.1,56.7z"
			/>
		<path d="M456.2,56.7h-3.7l-1.5-3.9h-6.8l-1.4,3.9h-3.6l6.6-17h3.6L456.2,56.7z M449.9,49.9l-2.3-6.3l-2.3,6.3H449.9z"/>
		<path d="M458,39.7h6.3c1.4,0,2.5,0.1,3.2,0.3c1,0.3,1.8,0.8,2.6,1.6s1.2,1.7,1.6,2.8c0.4,1.1,0.6,2.4,0.6,4c0,1.4-0.2,2.6-0.5,3.6
			c-0.4,1.2-1,2.2-1.8,3c-0.6,0.6-1.4,1-2.4,1.4c-0.8,0.2-1.8,0.4-3,0.4H458L458,39.7L458,39.7z M461.4,42.5v11.3h2.6
			c1,0,1.6-0.1,2.1-0.2c0.6-0.1,1-0.4,1.4-0.7c0.4-0.3,0.7-0.9,0.9-1.6c0.2-0.8,0.3-1.8,0.3-3.1c0-1.3-0.1-2.3-0.3-3
			c-0.2-0.7-0.6-1.3-1-1.6c-0.4-0.4-0.9-0.7-1.6-0.8c-0.5-0.1-1.4-0.2-2.8-0.2H461.4z"/>
		<path d="M475.1,56.7v-17h12.6v2.9h-9.1v3.8h8.5v2.9h-8.5v4.6h9.5v2.9H475.1z"/>
	</g>
	<g>
		<path d="M363.5,75.9l3.2,1c-0.5,1.8-1.3,3.2-2.5,4c-1.2,0.9-2.6,1.3-4.4,1.3c-2.2,0-4-0.8-5.4-2.3c-1.4-1.5-2.1-3.6-2.1-6.2
			c0-2.8,0.7-4.9,2.1-6.4c1.4-1.5,3.3-2.3,5.6-2.3c2,0,3.7,0.6,4.9,1.8c0.8,0.7,1.3,1.7,1.7,3.1l-3.3,0.8c-0.2-0.9-0.6-1.5-1.2-2
			c-0.6-0.5-1.4-0.7-2.3-0.7c-1.2,0-2.2,0.4-3,1.3c-0.8,0.9-1.2,2.3-1.2,4.3c0,2.1,0.4,3.6,1.1,4.5c0.8,0.9,1.7,1.3,2.9,1.3
			c0.9,0,1.7-0.3,2.3-0.9C362.8,78,363.2,77.2,363.5,75.9z"/>
		<path d="M368.9,73.8c0-1.7,0.3-3.1,0.8-4.3c0.4-0.8,0.9-1.6,1.5-2.3c0.7-0.7,1.4-1.2,2.1-1.5c1-0.4,2.2-0.7,3.6-0.7
			c2.4,0,4.4,0.8,5.9,2.3c1.5,1.5,2.2,3.6,2.2,6.3c0,2.7-0.7,4.8-2.2,6.3c-1.5,1.5-3.4,2.3-5.8,2.3c-2.5,0-4.4-0.8-5.9-2.3
			C369.7,78.6,368.9,76.5,368.9,73.8z M372.4,73.7c0,1.9,0.4,3.3,1.3,4.3c0.9,1,2,1.5,3.3,1.5c1.3,0,2.4-0.5,3.3-1.4
			c0.9-1,1.3-2.4,1.3-4.3c0-1.9-0.4-3.3-1.2-4.3c-0.8-0.9-1.9-1.4-3.3-1.4c-1.4,0-2.5,0.5-3.3,1.4C372.8,70.4,372.4,71.8,372.4,73.7
			z"/>
		<path d="M403,82V65.4h5l3,11.3l3-11.3h5V82h-3.1V69L412.6,82h-3.2L406.1,69V82H403z"/>
		<path d="M422.3,82V65.4h12.3v2.8h-8.9v3.7h8.3v2.8h-8.3v4.5h9.2V82H422.3z"/>
		<path d="M441.4,82V68.2h-4.9v-2.8h13.1v2.8h-4.9V82H441.4z"/>
		<path d="M451.7,82V65.4h3.3V82H451.7z"/>
		<path d="M468.8,75.9l3.2,1c-0.5,1.8-1.3,3.2-2.5,4c-1.2,0.9-2.6,1.3-4.4,1.3c-2.2,0-4-0.8-5.4-2.3c-1.4-1.5-2.1-3.6-2.1-6.2
			c0-2.8,0.7-4.9,2.1-6.4c1.4-1.5,3.3-2.3,5.6-2.3c2,0,3.7,0.6,4.9,1.8c0.8,0.7,1.3,1.7,1.7,3.1l-3.3,0.8c-0.2-0.9-0.6-1.5-1.2-2
			c-0.6-0.5-1.4-0.7-2.3-0.7c-1.2,0-2.2,0.4-3,1.3s-1.1,2.3-1.1,4.3c0,2.1,0.4,3.6,1.1,4.5c0.8,0.9,1.7,1.3,2.9,1.3
			c0.9,0,1.7-0.3,2.3-0.9C468.1,78,468.5,77.2,468.8,75.9z"/>
		<path d="M386.7,76.3h3.3c0.2,1.1,0.6,1.9,1.2,2.4c0.6,0.5,1.4,0.8,2.4,0.8c1.1,0,1.9-0.2,2.4-0.7c0.5-0.5,0.8-1,0.8-1.6
			c0-0.4-0.1-0.7-0.3-1c-0.2-0.3-0.6-0.5-1.2-0.7c-0.4-0.1-1.3-0.4-2.7-0.7c-1.8-0.4-3-1-3.8-1.6c-1-0.9-1.5-2-1.5-3.3
			c0-0.8,0.2-1.6,0.7-2.4c0.5-0.7,1.2-1.3,2.1-1.7c0.9-0.4,2-0.6,3.3-0.6c2.1,0,3.6,0.5,4.7,1.4c1,0.9,1.6,2.3,1.7,3.8h-3.4
			c-0.1-0.9-0.5-1.5-0.9-1.8c-0.5-0.4-1.2-0.6-2.1-0.6c-1,0-1.7,0.2-2.3,0.6c-0.4,0.3-0.5,0.6-0.5,1c0,0.4,0.2,0.7,0.5,1
			c0.4,0.4,1.4,0.7,3.1,1.1c1.6,0.4,2.8,0.8,3.6,1.2c0.8,0.4,1.4,1,1.8,1.7c0.4,0.7,0.7,1.6,0.7,2.6c0,1-0.3,1.8-0.8,2.7
			c-0.5,0.8-1.3,1.4-2.2,1.9c-1,0.4-2.2,0.6-3.6,0.6c-2.1,0-3.7-0.5-4.8-1.5C387.6,79.9,387,78.2,386.7,76.3z"/>
		<path d="M474.1,76.3h3.3c0.2,1.1,0.6,1.9,1.2,2.4c0.6,0.5,1.4,0.8,2.4,0.8c1.1,0,1.9-0.2,2.4-0.7c0.5-0.5,0.8-1,0.8-1.6
			c0-0.4-0.1-0.7-0.3-1c-0.2-0.3-0.6-0.5-1.2-0.7c-0.4-0.1-1.3-0.4-2.7-0.7c-1.8-0.4-3-1-3.8-1.6c-1-0.9-1.5-2-1.5-3.3
			c0-0.8,0.2-1.6,0.7-2.4c0.5-0.7,1.2-1.3,2.1-1.7c0.9-0.4,2-0.6,3.3-0.6c2.1,0,3.6,0.5,4.7,1.4c1,0.9,1.6,2.3,1.7,3.8h-3.4
			c-0.1-0.9-0.5-1.5-0.9-1.8c-0.5-0.4-1.2-0.6-2.1-0.6c-1,0-1.7,0.2-2.3,0.6c-0.4,0.3-0.5,0.6-0.5,1c0,0.4,0.2,0.7,0.5,1
			c0.4,0.4,1.4,0.7,3.1,1.1c1.6,0.4,2.8,0.8,3.6,1.2c0.8,0.4,1.4,1,1.8,1.7c0.4,0.7,0.7,1.6,0.7,2.6c0,1-0.3,1.8-0.8,2.7
			c-0.5,0.8-1.3,1.4-2.2,1.9c-1,0.4-2.2,0.6-3.6,0.6c-2.1,0-3.7-0.5-4.8-1.5C475,79.9,474.3,78.2,474.1,76.3z"/>
	</g>
	<g>
		<path d="M402.3,26.4c0-0.4,0-0.7,0-1.1c0-0.8-0.1-1.5-0.1-2.1c-0.2-2.7-0.9-5.4-3.4-6.6c0.7-0.4,1.3-0.9,1.8-1.5
			c1.3-1.5,2-3.3,2-5.6c0-1.8-0.4-3.3-1.3-4.7c-0.9-1.4-2-2.3-3.5-2.9c-1.4-0.5-3.8-0.8-6.9-0.8h-12.7v29.9h6V18.7h0.5h0.8h3.7h1.3
			h0.5l0,0c3.3,0,4.5,1.4,4.9,4.5c0.1,0.7,0.2,1.4,0.2,2.2c0,0.4,0,0.7,0,1.1c0.1,1.7,0.3,3.5,0.8,4.8h6.5
			C402.6,30,402.4,28.1,402.3,26.4z M388.7,13.9h-4.5V6.3h4.7c2.4,0,3.9,0,4.4,0.1c1,0.2,1.7,0.6,2.3,1.2c0.5,0.6,0.8,1.4,0.8,2.4
			c0,0.9-0.2,1.6-0.6,2.2c-0.4,0.6-1,1-1.7,1.3C393.4,13.8,391.6,13.9,388.7,13.9z"/>
		<path d="M352.8,31.2V1.2h20.4v5.1h-14.4v7.1h12.4v5.1h-12.4v12.7C358.8,31.2,352.8,31.2,352.8,31.2z"/>
		<path d="M408.3,31.2V1.2h22.1v5.1h-16.1v6.6h15v5h-15v8.1h16.6v5C430.9,31.2,408.3,31.2,408.3,31.2z"/>
		<path d="M434.5,20.8h5.9c0.4,2,1.1,3.4,2.1,4.3c1.1,0.9,2.5,1.4,4.4,1.4c1.9,0,3.4-0.4,4.4-1.2c1-0.8,1.5-1.8,1.5-2.9
			c0-0.7-0.2-1.3-0.6-1.8c-0.4-0.5-1.1-0.9-2.2-1.3c-0.7-0.2-2.3-0.7-4.8-1.3c-3.2-0.8-5.5-1.8-6.8-3c-1.8-1.6-2.7-3.7-2.7-6
			c0-1.5,0.4-2.9,1.3-4.3c0.9-1.3,2.1-2.3,3.7-3s3.6-1,5.9-1c3.7,0,6.6,0.8,8.4,2.5c1.9,1.6,2.9,4.1,3,6.9h-6
			c-0.3-1.5-0.8-2.6-1.7-3.3c-0.9-0.7-2.1-1-3.8-1c-1.7,0-3.1,0.4-4.1,1.1c-0.6,0.5-0.9,1.1-0.9,1.9c0,0.7,0.3,1.3,0.9,1.8
			c0.8,0.6,2.6,1.3,5.5,2c2.9,0.7,5.1,1.4,6.5,2.2c1.4,0.7,2.5,1.8,3.3,3c0.8,1.3,1.2,2.9,1.2,4.8c0,1.7-0.5,3.3-1.4,4.8
			c-0.9,1.5-2.3,2.6-4,3.3c-1.7,0.7-3.9,1.1-6.5,1.1c-3.8,0-6.7-0.9-8.7-2.6C436.1,27.3,434.9,24.2,434.5,20.8z"/>
		<path d="M463.8,31.2V1.2h6V13h11.8V1.2h6v29.9h-6V18.1h-11.8v13.1C469.8,31.2,463.8,31.2,463.8,31.2z"/>
	</g>
</g>
</svg>
