<?xml version="1.0" standalone="no"?>
<!DOCTYPE svg PUBLIC "-//W3C//DTD SVG 20010904//EN"
 "http://www.w3.org/TR/2001/REC-SVG-20010904/DTD/svg10.dtd">
<svg version="1.0" xmlns="http://www.w3.org/2000/svg"
 width="1421.000000pt" height="1421.000000pt" viewBox="0 0 1421.000000 1421.000000"
 preserveAspectRatio="xMidYMid meet">

<g transform="translate(0.000000,1421.000000) scale(0.100000,-0.100000)"
fill="#000000" stroke="none">
<path d="M2540 6830 l0 -5770 4710 0 4710 0 0 5770 0 5770 -4710 0 -4710 0 0
-5770z m9230 0 l0 -5570 -4515 0 -4515 0 0 5570 0 5570 4515 0 4515 0 0 -5570z"/>
<path d="M6559 11261 c-37 -38 -37 -62 2 -106 39 -44 79 -47 114 -9 37 40 34
85 -9 118 -45 34 -71 33 -107 -3z"/>
<path d="M7079 11228 c-6 -12 -16 -78 -21 -147 -6 -69 -11 -128 -13 -130 -10
-10 -25 14 -25 40 0 23 -4 29 -21 29 -20 0 -21 -4 -16 -45 5 -37 4 -43 -8 -38
-13 4 -14 1 -5 -22 13 -33 13 -55 1 -55 -6 0 -42 52 -82 115 -40 63 -76 115
-80 115 -29 0 2 -80 78 -199 51 -79 26 -112 -26 -36 -30 45 -148 150 -178 159
-34 11 -48 -2 -27 -25 9 -10 23 -19 30 -19 22 0 172 -172 180 -207 9 -33 3
-35 -42 -14 -21 11 -65 22 -96 26 -57 6 -58 6 -58 -20 0 -29 30 -45 84 -45 19
0 39 -7 46 -15 7 -8 16 -13 20 -10 5 3 15 -4 24 -16 8 -12 19 -18 25 -14 6 3
11 3 11 0 0 -10 -42 -45 -68 -55 -35 -15 -53 -80 -21 -80 5 0 9 6 9 13 0 14
95 69 104 60 13 -13 5 -41 -15 -59 -36 -31 -139 -166 -139 -180 0 -31 22 -16
75 51 65 82 97 115 112 115 19 0 18 -2 -33 -81 -26 -39 -66 -113 -89 -163 -24
-51 -50 -98 -59 -105 -19 -16 -21 -44 -3 -39 15 5 48 57 130 202 34 61 67 111
73 113 7 2 -5 -52 -27 -124 -49 -162 -93 -383 -80 -396 13 -13 26 20 45 120 8
43 22 98 31 122 8 25 22 73 30 109 19 80 54 162 69 162 21 0 56 -75 57 -121 2
-69 23 -175 34 -169 13 7 7 129 -11 209 -24 105 -11 94 66 -56 53 -105 80
-141 80 -108 0 9 -7 30 -15 46 -35 68 -44 88 -75 162 -51 123 -25 141 73 50
34 -32 66 -64 70 -70 10 -16 138 -99 166 -108 34 -11 19 48 -17 63 -52 22
-116 75 -187 155 -96 108 -102 117 -84 128 28 17 127 32 259 38 121 6 138 9
168 31 17 13 32 27 32 32 0 12 -33 9 -52 -6 -12 -9 -58 -13 -144 -15 -69 -1
-134 -6 -144 -11 -24 -13 -77 -13 -85 -1 -6 11 2 19 55 56 19 13 45 31 57 40
12 9 52 27 89 41 37 13 72 28 78 33 6 5 40 23 74 41 45 23 61 35 53 43 -11 11
-51 -3 -141 -48 -25 -13 -61 -26 -80 -30 -38 -8 -119 -46 -161 -76 -39 -27
-79 -35 -79 -15 0 9 7 16 15 16 8 0 15 8 15 19 0 10 17 34 38 53 68 63 202
211 202 224 0 23 -10 16 -78 -51 -67 -67 -92 -79 -92 -45 0 11 -7 20 -15 20
-17 0 -20 16 -6 25 14 8 81 136 81 154 0 23 -37 -16 -69 -73 -37 -68 -96 -165
-116 -194 -14 -19 -19 -21 -32 -11 -15 13 -14 64 3 272 6 70 -4 88 -27 45z
m181 -282 c0 -8 -7 -17 -16 -20 -21 -8 -26 -3 -18 18 8 20 34 21 34 2z"/>
<path d="M5110 10375 c0 -3 13 -11 29 -16 23 -8 33 -21 45 -57 16 -48 260
-895 279 -964 l9 -38 69 0 68 0 10 37 c38 138 43 105 -64 494 -53 194 -109
397 -123 449 l-27 95 -148 3 c-81 1 -147 0 -147 -3z"/>
<path d="M5857 10373 c-4 -3 -7 -237 -7 -520 0 -447 -2 -514 -15 -519 -42 -17
0 -24 135 -24 139 0 182 8 130 25 -20 6 -20 15 -20 511 l0 504 25 10 c14 5 25
12 25 15 0 8 -266 6 -273 -2z"/>
<path d="M5157 9763 c-5 -374 -10 -408 -58 -426 -16 -6 -29 -15 -29 -19 0 -4
50 -8 110 -8 61 0 110 3 110 8 -1 4 -15 16 -33 27 -60 38 -62 48 -67 407 -3
226 -9 331 -16 338 -9 9 -13 -73 -17 -327z"/>
<path d="M5758 10043 c-62 -193 -92 -371 -57 -336 20 20 80 283 77 337 l-3 51
-17 -52z"/>
<path d="M7224 10056 c-10 -27 1 -51 24 -54 30 -5 52 14 52 44 0 21 -5 24 -35
24 -22 0 -38 -6 -41 -14z"/>
<path d="M6580 9957 c0 -3 11 -17 25 -31 l25 -25 0 -243 c0 -136 5 -259 10
-280 16 -55 51 -78 119 -78 69 0 92 12 56 28 l-25 12 0 233 c0 222 -1 235 -22
277 -28 54 -90 99 -146 107 -23 3 -42 3 -42 0z"/>
<path d="M7425 9941 c-89 -54 -120 -162 -71 -245 29 -49 58 -72 162 -124 87
-44 129 -78 144 -117 17 -44 11 -73 -21 -110 -18 -20 -29 -38 -26 -42 4 -3 27
2 52 11 84 33 138 132 115 217 -16 60 -60 101 -168 158 -130 68 -165 104 -165
167 0 42 4 51 33 76 l34 28 -29 0 c-17 0 -43 -8 -60 -19z"/>
<path d="M7600 9953 c0 -5 16 -21 36 -37 20 -16 45 -49 56 -73 25 -56 40 -45
36 26 l-3 53 -55 19 c-60 21 -70 23 -70 12z"/>
<path d="M8976 9953 c-4 -4 -56 -6 -116 -4 -73 1 -110 -1 -110 -8 0 -6 5 -11
10 -11 15 0 13 -593 -2 -608 -9 -9 11 -12 92 -12 81 0 101 3 92 12 -9 9 -12
86 -12 284 l0 272 26 31 c14 17 32 31 39 31 8 0 17 5 20 10 7 11 -28 14 -39 3z"/>
<path d="M9154 9920 l36 -40 0 -273 c0 -199 -3 -276 -12 -285 -9 -9 12 -12 98
-12 93 1 106 3 92 14 -16 12 -18 35 -18 232 0 120 -4 235 -10 254 -21 78 -112
149 -189 150 l-33 0 36 -40z"/>
<path d="M6366 9926 c-46 -28 -65 -58 -66 -107 0 -45 28 -73 75 -73 69 0 97
65 53 126 -17 25 -19 34 -10 49 24 37 4 39 -52 5z"/>
<path d="M6990 9941 c0 -5 5 -13 10 -16 6 -4 10 -112 10 -292 0 -253 -2 -289
-17 -305 -15 -17 -12 -18 92 -18 88 0 105 2 96 13 -7 9 -12 114 -13 318 l-3
304 -87 3 c-53 2 -88 -1 -88 -7z"/>
<path d="M8114 9931 c-126 -57 -198 -208 -173 -362 17 -105 79 -197 161 -240
33 -17 78 -26 78 -15 0 2 -12 30 -27 62 -27 58 -28 63 -28 249 0 159 3 198 18
237 10 25 25 52 33 58 38 33 0 39 -62 11z"/>
<path d="M8340 9944 c0 -3 11 -19 25 -36 40 -47 49 -99 49 -278 0 -177 -12
-256 -45 -286 -20 -18 -26 -44 -10 -44 25 0 104 43 140 75 22 20 53 62 68 93
24 50 27 69 28 157 0 82 -4 109 -21 146 -30 63 -88 126 -146 155 -44 23 -88
31 -88 18z"/>
<path d="M6417 9630 c-87 -23 -133 -58 -148 -112 -23 -86 11 -167 85 -202 31
-15 136 -23 136 -11 0 3 -12 17 -27 30 -27 22 -28 27 -28 123 0 98 1 101 32
140 18 23 30 43 25 45 -4 2 -37 -4 -75 -13z"/>
<path d="M7332 9398 c3 -63 5 -72 23 -73 11 -1 39 -8 63 -15 23 -7 45 -10 49
-7 3 4 -14 25 -39 47 -25 22 -53 58 -62 80 -25 62 -37 50 -34 -32z"/>
<path d="M7592 8030 c-36 -95 -102 -278 -102 -285 0 -8 87 -238 200 -531 80
-207 88 -234 70 -234 -5 0 -10 -4 -10 -10 0 -6 59 -10 158 -10 125 1 154 3
141 13 -9 7 -25 37 -37 67 -11 30 -56 143 -100 250 -109 267 -293 721 -302
745 -8 19 -8 19 -18 -5z"/>
<path d="M9536 7896 l-56 -155 21 -53 c95 -238 259 -674 259 -687 0 -9 -5 -22
-12 -29 -9 -9 23 -12 147 -12 150 0 157 1 143 18 -8 9 -45 91 -81 182 -114
285 -357 883 -360 887 -2 2 -29 -66 -61 -151z"/>
<path d="M4485 8020 c3 -5 14 -10 23 -10 9 0 23 -4 29 -8 7 -5 72 -213 143
-463 72 -249 140 -484 151 -521 l21 -68 63 0 c35 0 67 5 70 10 4 6 15 46 25
88 l19 78 -123 450 -123 449 -152 3 c-103 2 -150 -1 -146 -8z"/>
<path d="M5230 7509 c0 -512 0 -521 -20 -526 -55 -14 -5 -23 135 -23 143 0
188 8 135 25 -20 6 -20 15 -20 509 l0 504 23 15 c20 15 12 16 -115 16 l-138 1
0 -521z"/>
<path d="M5688 8013 l22 -15 0 -505 c0 -496 0 -505 -20 -510 -54 -14 -5 -23
130 -23 135 0 177 7 135 24 -13 5 -15 71 -15 511 0 440 2 506 15 511 43 17 0
24 -137 23 -142 0 -151 -1 -130 -16z"/>
<path d="M6160 8010 l25 -19 3 -458 c2 -252 0 -477 -3 -500 -4 -30 -12 -44
-26 -48 -48 -16 3 -25 134 -25 149 0 187 8 142 28 l-25 12 0 499 c0 491 0 500
20 506 53 17 8 25 -137 25 -158 0 -158 0 -133 -20z"/>
<path d="M6674 8015 c11 -8 23 -15 28 -15 4 0 8 -227 8 -504 0 -495 0 -504
-20 -509 -11 -3 -20 -10 -20 -16 0 -7 48 -11 150 -11 96 0 150 4 150 10 0 6
-7 13 -15 16 -13 5 -15 71 -15 510 0 439 2 505 15 510 43 17 -1 24 -142 24
-141 -1 -156 -2 -139 -15z"/>
<path d="M8170 8021 c0 -5 9 -13 20 -16 20 -6 20 -15 20 -512 0 -496 0 -505
-20 -510 -54 -14 -5 -23 130 -23 135 0 177 7 135 24 -13 5 -15 72 -15 526 l0
520 -135 0 c-77 0 -135 -4 -135 -9z"/>
<path d="M8610 8024 c1 -5 15 -18 33 -29 61 -38 72 -78 75 -281 l4 -182 35 10
c72 20 151 85 173 143 19 49 14 147 -9 193 -26 52 -91 107 -150 127 -55 19
-161 31 -161 19z"/>
<path d="M4528 7397 c-3 -324 -5 -355 -22 -381 -10 -16 -27 -31 -37 -33 -49
-13 -9 -23 91 -23 61 0 110 3 110 8 0 4 -14 13 -31 21 -20 9 -38 28 -50 55
-17 37 -19 70 -19 342 0 286 -7 364 -30 364 -5 0 -10 -159 -12 -353z"/>
<path d="M5148 7735 c-14 -22 -88 -318 -88 -352 0 -72 26 -24 63 118 24 95 36
161 35 194 -2 28 -6 45 -10 40z"/>
<path d="M7432 7610 c-23 -59 -140 -369 -155 -410 -32 -85 -92 -185 -125 -205
-17 -11 -31 -23 -32 -27 0 -5 52 -8 115 -8 106 0 144 10 97 25 -26 8 -42 47
-42 105 0 37 20 99 85 267 47 120 85 225 85 233 0 8 -4 22 -10 30 -7 12 -11
10 -18 -10z"/>
<path d="M9345 7398 c-48 -128 -101 -259 -116 -290 -33 -65 -84 -128 -105
-128 -8 0 -14 -4 -14 -10 0 -6 47 -10 123 -10 l122 1 -35 29 c-33 27 -35 32
-35 92 1 55 11 89 84 273 82 208 93 247 74 266 -7 7 -41 -72 -98 -223z"/>
<path d="M8580 7511 c0 -6 11 -11 25 -11 41 0 72 -21 89 -59 12 -27 17 -76 19
-201 4 -181 10 -206 67 -253 36 -31 88 -47 152 -47 53 0 70 15 40 36 -18 12
-20 27 -23 172 -4 153 -5 160 -34 217 -32 63 -95 115 -163 135 -58 18 -172 25
-172 11z"/>
<path d="M6476 7495 c-14 -37 3 -46 83 -43 65 3 76 6 79 22 6 27 -15 36 -89
36 -50 0 -68 -4 -73 -15z"/>
<path d="M7420 7315 c0 -25 1 -25 79 -25 63 0 80 3 85 16 11 28 -4 34 -85 34
-78 0 -79 0 -79 -25z"/>
<path d="M9412 7318 c3 -22 8 -23 83 -23 75 0 80 1 83 23 3 21 1 22 -83 22
-84 0 -86 -1 -83 -22z"/>
<path d="M5038 5694 c-11 -17 -108 -286 -108 -298 0 -7 63 -176 140 -376 77
-200 140 -369 140 -377 0 -7 -4 -13 -10 -13 -5 0 -10 -4 -10 -10 0 -6 57 -10
150 -10 84 0 150 4 150 9 0 5 -4 11 -8 13 -5 2 -43 89 -85 193 -41 105 -136
339 -210 520 -73 182 -136 337 -139 345 -2 7 -7 10 -10 4z"/>
<path d="M10205 5686 c-144 -36 -264 -151 -314 -301 -27 -83 -45 -225 -37
-299 28 -254 144 -418 339 -478 67 -20 102 -17 62 6 -39 22 -74 68 -95 123
-32 85 -46 338 -32 579 15 251 32 303 112 344 22 11 40 25 40 30 0 12 -11 12
-75 -4z"/>
<path d="M10386 5691 c-3 -5 8 -14 24 -21 44 -18 87 -73 105 -133 35 -121 38
-662 5 -788 -15 -56 -51 -102 -97 -124 -79 -37 -37 -48 64 -17 155 49 263 173
308 357 23 91 23 257 1 349 -34 141 -131 278 -234 330 -74 37 -167 62 -176 47z"/>
<path d="M3717 5684 c-3 -3 8 -18 23 -32 16 -15 95 -141 175 -280 l145 -254 0
-238 c0 -235 0 -238 -22 -253 -21 -15 -12 -16 135 -16 145 -1 190 7 137 24
-19 6 -20 15 -20 269 l0 263 -126 223 c-121 216 -150 280 -125 280 7 0 9 5 6
10 -7 11 -317 15 -328 4z"/>
<path d="M4461 5681 c-10 -7 -7 -12 15 -23 26 -12 29 -19 28 -58 0 -37 -15
-70 -77 -182 -72 -128 -93 -185 -65 -176 7 3 52 76 101 164 103 184 127 219
174 247 26 15 31 22 21 28 -17 11 -179 11 -197 0z"/>
<path d="M8916 5682 c-3 -5 6 -14 19 -20 l25 -12 0 -500 0 -500 -25 -12 c-46
-21 -14 -28 131 -28 138 0 156 4 134 26 -6 6 -11 203 -12 529 l-3 520 -132 3
c-72 1 -134 -1 -137 -6z"/>
<path d="M9366 5683 c-11 -11 -6 -18 22 -30 60 -27 82 -114 82 -325 0 -104 3
-138 13 -138 26 0 114 49 144 81 97 103 79 277 -36 351 -60 38 -208 78 -225
61z"/>
<path d="M6072 5671 c2 -5 23 -24 48 -43 52 -39 106 -123 117 -181 5 -22 14
-42 21 -45 9 -3 12 27 12 122 0 126 0 126 -22 121 -13 -3 -50 3 -82 15 -63 21
-100 26 -94 11z"/>
<path d="M6523 5662 c14 -15 16 -67 19 -427 l3 -410 30 -54 c49 -89 155 -157
261 -168 69 -7 70 4 5 66 -33 30 -53 59 -60 86 -7 26 -11 189 -11 464 0 381 2
426 17 443 16 17 11 18 -132 18 -141 0 -147 -1 -132 -18z"/>
<path d="M7114 5671 c3 -4 19 -14 35 -21 20 -8 38 -27 51 -55 20 -42 21 -55
18 -412 -3 -349 -4 -370 -24 -413 -27 -59 -70 -98 -136 -125 -64 -26 -72 -51
-15 -48 50 3 95 25 139 68 79 77 87 127 87 582 1 271 4 329 17 362 9 22 24 43
35 46 48 15 10 25 -97 25 -63 0 -113 -4 -110 -9z"/>
<path d="M8468 5663 l22 -15 0 -503 0 -503 -22 -15 c-21 -15 -12 -16 135 -16
141 -1 192 7 137 22 -20 5 -20 14 -20 512 0 498 0 507 20 512 55 15 4 23 -137
22 -147 0 -156 -1 -135 -16z"/>
<path d="M5789 5642 c-84 -54 -132 -149 -132 -262 0 -140 63 -215 273 -324
147 -77 232 -146 251 -203 18 -55 7 -135 -24 -177 -51 -66 -23 -76 64 -22 53
34 102 91 127 150 22 50 26 138 9 197 -30 100 -103 162 -302 260 -222 109
-293 233 -209 361 13 21 24 40 24 43 0 14 -41 2 -81 -23z"/>
<path d="M7440 5661 c0 -5 9 -11 20 -14 20 -5 20 -14 20 -510 0 -497 0 -506
-20 -512 -52 -16 -9 -25 123 -25 138 0 195 10 148 25 l-21 6 0 505 c0 439 2
505 15 510 42 17 0 24 -135 24 -82 0 -150 -4 -150 -9z"/>
<path d="M7960 5661 c0 -5 9 -11 20 -14 20 -5 20 -14 20 -510 0 -498 0 -506
-20 -512 -49 -16 2 -25 135 -25 133 0 184 9 135 25 -20 6 -20 14 -20 509 l0
504 23 15 c20 15 11 16 -135 16 -87 1 -158 -3 -158 -8z"/>
<path d="M4878 5274 c-4 -5 -41 -99 -82 -209 -42 -110 -88 -227 -102 -260 -35
-83 -92 -164 -120 -171 -56 -14 -16 -24 96 -24 121 0 146 8 95 32 -29 13 -37
35 -37 97 0 44 13 82 137 404 29 75 36 102 28 119 -5 12 -12 17 -15 12z"/>
<path d="M9330 5173 c0 -5 20 -14 45 -21 70 -19 78 -42 85 -253 5 -172 6 -176
33 -218 36 -55 92 -80 173 -81 71 0 84 8 52 32 -22 16 -23 24 -28 185 -5 161
-6 170 -33 215 -33 56 -78 93 -146 118 -56 22 -181 38 -181 23z"/>
<path d="M7777 5143 c-4 -3 -7 -17 -7 -30 0 -22 3 -23 79 -23 64 0 80 3 85 16
12 31 -13 44 -84 44 -36 0 -70 -3 -73 -7z"/>
<path d="M4862 4968 c3 -21 9 -23 79 -26 63 -2 78 0 83 14 11 28 -3 34 -85 34
-78 0 -80 -1 -77 -22z"/>
<path d="M5650 4791 l0 -150 33 5 c17 3 52 -2 76 -10 52 -19 81 -20 81 -5 0 7
-20 33 -44 59 -49 53 -93 132 -111 199 -6 25 -16 46 -23 49 -9 3 -12 -34 -12
-147z"/>
<path d="M4040 3585 l0 -75 3223 2 3222 3 3 73 3 72 -3226 0 -3225 0 0 -75z"/>
<path d="M4882 2933 c-8 -3 -2 -18 20 -49 30 -43 47 -51 56 -26 5 16 -60 81
-76 75z"/>
<path d="M4817 2894 c-6 -7 54 -92 66 -93 20 -2 16 32 -8 64 -26 33 -44 42
-58 29z"/>
<path d="M6535 2863 c-24 -23 -18 -29 43 -42 31 -7 86 -24 121 -38 52 -21 65
-23 72 -12 5 8 9 19 9 25 0 13 -83 45 -173 68 -50 12 -59 12 -72 -1z"/>
<path d="M8475 2863 c21 -51 44 -138 37 -144 -9 -8 -136 -39 -162 -39 -23 0
-25 -9 -7 -34 13 -17 16 -17 88 3 42 12 82 21 90 21 10 0 26 -45 54 -155 32
-124 43 -155 57 -155 9 0 19 4 23 10 3 5 -13 77 -36 160 -22 83 -38 154 -35
157 3 4 53 19 111 34 l105 27 -20 -39 c-11 -21 -34 -55 -52 -75 -26 -29 -29
-37 -17 -45 8 -5 19 -9 25 -9 19 0 124 163 124 193 0 28 -31 26 -162 -8 -72
-20 -132 -34 -134 -33 -1 2 -9 35 -16 73 -14 69 -15 70 -48 73 -28 3 -32 1
-25 -15z"/>
<path d="M4095 2813 c-15 -42 -45 -99 -73 -141 -7 -10 -22 -5 -68 22 -32 20
-64 36 -70 36 -10 0 -29 -30 -22 -34 91 -54 118 -72 118 -82 0 -18 -135 -149
-190 -185 -39 -25 -47 -35 -39 -46 6 -7 18 -13 27 -13 23 0 116 75 186 151
l62 68 47 -46 c29 -28 52 -43 62 -39 26 10 16 35 -32 81 l-48 45 25 42 c13 24
38 69 54 100 30 57 30 58 11 73 -29 21 -31 20 -50 -32z"/>
<path d="M7790 2830 c0 -19 7 -20 160 -20 153 0 160 1 160 20 0 19 -7 20 -160
20 -153 0 -160 -1 -160 -20z"/>
<path d="M9768 2648 c4 -252 -2 -241 142 -246 55 -3 125 -1 156 3 49 6 55 9
52 28 -3 20 -7 22 -53 17 -97 -10 -222 -5 -239 10 -13 10 -16 28 -14 84 l3 70
105 36 c179 62 203 78 166 109 -10 8 -24 5 -59 -14 -39 -22 -197 -85 -213 -85
-3 0 -4 42 -3 93 3 91 3 92 -21 95 l-25 3 3 -203z"/>
<path d="M5102 2803 c-8 -15 2 -27 55 -67 59 -45 65 -48 80 -33 15 15 15 18
-2 37 -18 20 -106 80 -118 80 -3 0 -10 -8 -15 -17z"/>
<path d="M9233 2813 c-155 -3 -163 -5 -163 -23 0 -19 7 -20 150 -20 l150 0
-19 -37 c-51 -98 -177 -222 -288 -285 -43 -24 -51 -33 -42 -44 17 -20 34 -17
82 12 47 30 144 109 168 139 16 19 17 19 53 -8 20 -16 63 -55 97 -88 49 -50
63 -58 75 -49 7 7 14 18 14 25 0 11 -96 101 -161 151 l-27 20 59 87 c32 48 59
89 59 91 0 8 -32 36 -38 34 -4 -1 -80 -4 -169 -5z"/>
<path d="M4430 2785 c-10 -12 -3 -25 42 -74 49 -55 54 -58 70 -44 21 19 14 34
-43 91 -46 46 -51 49 -69 27z"/>
<path d="M4790 2778 c-1 -31 -41 -127 -82 -195 -37 -62 -117 -147 -179 -192
l-41 -30 25 -12 c23 -10 30 -8 65 20 104 82 184 192 248 340 27 62 27 64 9 77
-28 20 -45 17 -45 -8z"/>
<path d="M10400 2604 l0 -195 23 3 c14 2 23 11 25 26 3 22 6 22 142 22 136 0
139 0 142 -22 2 -15 11 -24 26 -26 l22 -3 0 195 0 196 -190 0 -190 0 0 -196z
m330 26 l0 -131 -142 3 -143 3 -3 114 c-1 63 0 121 2 128 4 10 39 13 146 13
l140 0 0 -130z"/>
<path d="M5475 2693 c-77 -83 -194 -171 -290 -219 -41 -20 -75 -40 -75 -44 0
-4 8 -14 18 -23 17 -15 23 -13 102 33 106 63 178 118 258 194 52 49 62 65 62
93 0 18 -3 32 -7 32 -5 -1 -35 -31 -68 -66z"/>
<path d="M7170 2743 c0 -49 -96 -200 -153 -242 -15 -11 -16 -15 -6 -22 31 -20
55 -7 102 53 27 34 64 93 84 132 33 66 34 70 17 83 -25 18 -44 16 -44 -4z"/>
<path d="M7357 2749 c-15 -9 -13 -16 29 -66 25 -31 63 -89 85 -129 37 -67 42
-72 60 -61 10 6 19 15 19 18 0 21 -83 150 -125 195 -42 45 -53 52 -68 43z"/>
<path d="M7740 2693 c0 -23 0 -23 175 -23 96 0 175 -3 175 -7 0 -5 -14 -32
-30 -60 -40 -70 -123 -152 -196 -193 -52 -31 -56 -34 -36 -43 11 -5 31 -7 44
-4 37 10 128 83 175 140 56 67 114 179 104 196 -6 9 -57 13 -210 14 l-201 2 0
-22z"/>
<path d="M6483 2683 c-4 -9 -2 -18 3 -20 5 -2 53 -18 106 -37 94 -32 98 -33
104 -13 8 25 -2 31 -99 62 -92 30 -106 30 -114 8z"/>
<path d="M6471 2481 c-12 -22 -20 -18 112 -52 23 -6 75 -24 115 -41 40 -16 79
-27 87 -24 24 9 17 34 -12 50 -41 20 -202 73 -250 81 -36 6 -43 4 -52 -14z"/>
</g>
</svg>
