<?xml version="1.0" encoding="utf-8"?>
<!-- Generator: Adobe Illustrator 19.2.1, SVG Export Plug-In . SVG Version: 6.00 Build 0)  -->
<svg version="1.1" id="Porter_Yoshida_Co" xmlns="http://www.w3.org/2000/svg" xmlns:xlink="http://www.w3.org/1999/xlink" x="0px" y="0px"
	 width="400px" height="220px" viewBox="0 0 400 220" style="enable-background:new 0 0 400 220;" xml:space="preserve">
<title>Porter Yoshida Co</title>
<g>
	<g>
		<path d="M355.7,5.1H43v209.8H357V5.1H355.7z M354.5,212.4H45.6V7.6h308.9V212.4z"/>
		<polygon points="92.1,184.4 92.1,186.5 83.9,186.5 83.9,204.9 80.7,204.9 80.7,186.5 72.3,186.5 72.3,184.4 		"/>
		<g>
			<path d="M69,25c0.5,0.8,1.3,0.8,1.8,0l3.3-5.3c0.5-0.8,1.5-1.5,2.2-1.5c0.7,0,0.9,0.7,0.4,1.5l-4.8,8c-0.5,0.8-0.9,2.2-0.9,3.2
				V37c0,0.9-0.6,1.7-1.3,1.7c-0.7,0-1.3-0.8-1.3-1.7v-6.2c0-1-0.4-2.4-0.9-3.2l-4.9-8c-0.5-0.8-0.2-1.5,0.6-1.5
				c0.8,0,1.9,0.7,2.4,1.5L69,25z"/>
			<path d="M94.1,36.5c1.6-1.8,2.4-4.5,2.4-8c0-3.4-0.8-6.1-2.4-8.1c-1.6-1.8-3.7-2.7-6.2-2.7c-2.5,0-4.5,0.9-6.1,2.7
				c-1.7,1.8-2.5,4.5-2.5,8.1c0,3.5,0.8,6.2,2.4,8c1.6,1.9,3.7,2.9,6.2,2.9C90.4,39.3,92.5,38.4,94.1,36.5 M83.8,35.3
				c-1.3-1.6-1.9-3.9-1.9-6.9c0-3,0.6-5.3,1.9-6.9c1-1.3,2.3-1.9,4-1.9c1.8,0,3.1,0.6,4,1.9c1.3,1.6,1.9,3.9,1.9,6.9
				c0,3-0.6,5.3-1.9,6.9c-0.9,1.3-2.3,1.9-4,1.9C86.1,37.2,84.8,36.6,83.8,35.3"/>
			<path d="M99.3,34h2.6c0,1.1,0.3,1.8,0.8,2.2c0.9,0.6,2,1,3.5,1c1.3,0,2.4-0.3,3.1-1.1c0.7-0.7,1.1-1.6,1.1-2.6
				c0-0.9-0.2-1.5-0.7-2c-0.6-0.6-2.1-1.3-4.5-2.3c-2-0.8-3.3-1.7-4.1-2.6c-0.8-1-1.3-2.1-1.3-3.4c0-1.6,0.6-3,1.8-4
				c1.2-1.1,2.9-1.6,5.1-1.6c2,0,3.5,0.4,4.4,1.2c0.9,0.7,1,1.3,1,1.3c0.2,0.9-0.4,1.7-1.4,1.7h-1.1c0-0.7-0.2-1.2-0.7-1.5
				c-0.6-0.3-1.5-0.5-2.6-0.5c-1.1,0-2,0.3-2.8,0.8c-0.6,0.6-1,1.4-1,2.3c0,0.9,0.3,1.7,1.1,2.4c0.6,0.4,2,1.2,4.4,2.2
				c2,0.9,3.3,1.8,3.9,2.6c0.7,0.9,1.1,2,1.1,3.3c0,1.7-0.6,3.1-1.7,4.2c-1.1,1.1-2.9,1.7-5.2,1.7c-2.3,0-4.1-0.5-5.3-1.5
				C99.8,36.9,99.3,35.7,99.3,34"/>
			<path d="M130.9,37c0,0.9-0.6,1.7-1.3,1.7c-0.7,0-1.3-0.8-1.3-1.7v-5.9c0-0.9-0.8-1.7-1.7-1.7h-6c-0.9,0-1.7,0.8-1.7,1.7V37
				c0,0.9-0.6,1.7-1.4,1.7c-0.8,0-1.4-0.8-1.4-1.7V19.9c0-0.9,0.6-1.7,1.4-1.7c0.7,0,1.4,0.8,1.4,1.7v5.7c0,0.9,0.8,1.7,1.7,1.7h6
				c0.9,0,1.7-0.8,1.7-1.7v-5.7c0-0.9,0.6-1.7,1.3-1.7c0.7,0,1.3,0.8,1.3,1.7V37z"/>
			<path d="M137.5,37c0,0.9-0.6,1.7-1.4,1.7c-0.8,0-1.4-0.8-1.4-1.7V19.9c0-0.9,0.6-1.7,1.4-1.7c0.8,0,1.4,0.8,1.4,1.7V37z"/>
			<path d="M153.8,36.9c2.3-1.8,3.4-4.7,3.4-8.6c0-3.9-1.1-6.7-3.3-8.5c-1.3-1.1-3.6-1.7-6.9-1.7h-4c-0.9,0-1.7,0.8-1.7,1.7V37
				c0,0.9,0.8,1.7,1.7,1.7h4.3C150.2,38.7,152.3,38.1,153.8,36.9 M152.3,21.7c1.4,1.3,2,3.6,2,6.9c0,2.9-0.6,4.9-1.7,6
				c-1.1,1.3-3,1.9-5.5,1.9h-1.4c-0.9,0-1.7-0.8-1.7-1.7V22c0-0.9,0.8-1.7,1.7-1.7h1.4C149.6,20.3,151.3,20.7,152.3,21.7"/>
			<path d="M170.4,19.8c-0.3-0.9-1.2-1.6-2-1.6c-0.8,0-1.7,0.7-2,1.6l-7.1,17.4c-0.3,0.9-0.1,1.6,0.6,1.6c0.7,0,1.5-0.7,1.9-1.6
				l1-2.5c0.4-0.9,1.4-1.6,2.4-1.6h5.7c0.9,0,2,0.7,2.3,1.6l0.9,2.4c0.3,0.9,1.2,1.6,2,1.6c0.8,0,1.2-0.7,0.8-1.6L170.4,19.8z
				 M171.1,29.4c0.3,0.9-0.2,1.6-1.1,1.6h-4c-0.9,0-1.4-0.7-1.1-1.6l2.5-6.4c0.4-0.9,0.9-0.9,1.2,0L171.1,29.4z"/>
			<path d="M197.6,35.4c-1.6,1.2-3,1.8-4.1,1.8c-1.2,0-2.2-0.4-3.1-1.3c-0.8-0.8-1.3-1.8-1.3-3c0-0.9,0.3-1.9,0.8-2.8
				c0.6-1,1.4-1.7,2.5-2.2C193.7,30.1,195.4,32.6,197.6,35.4 M199.5,37.7c0.1,0,0.2,0.1,0.3,0.3c0.1,0.1,0.3,0.3,0.4,0.4
				c0.1,0.1,0.2,0.2,0.2,0.3h1.9c0.9,0,1.2-0.5,0.5-1.2c0,0-1.2-1.2-2.1-2.3c1.6-2.3,2.4-5,2.4-8.1h-0.7c-0.9,0-1.7,0.8-1.8,1.7
				c0,0-0.1,1.7-0.3,2.4c-0.2,0.8-0.6,1.6-1.1,2.3c-1.5-1.8-3.1-4.1-4.6-6.8c1.3-0.7,2.3-1.6,3-2.6c0.7-0.9,1.1-1.9,1.1-3
				c0-0.9-0.4-1.8-1.2-2.5c-0.7-0.7-1.8-1.1-3.2-1.1c-1.4,0-2.6,0.4-3.4,1.3c-0.9,0.8-1.4,1.8-1.4,3c0,0.4,0.1,0.9,0.3,1.5
				c0.1,0.5,0.6,1.3,1.3,2.5c0.1,0.2-0.4,0.8-1.2,1.3c0,0-1.2,0.8-2.1,2.1c-0.9,1.1-1.4,2.4-1.4,3.9c0,1.8,0.6,3.2,1.9,4.4
				c1.2,1.2,2.8,1.8,4.8,1.8c2.2,0,4.1-0.8,5.6-2.3C199.1,37.3,199.4,37.6,199.5,37.7L199.5,37.7z M192.3,21.5
				c0-0.6,0.2-1.1,0.6-1.6c0.4-0.4,0.8-0.5,1.4-0.5c0.5,0,1,0.2,1.6,0.5c0.4,0.4,0.6,0.9,0.6,1.4c0,0.5-0.2,1.1-0.6,1.7
				c-0.5,0.7-1.2,1.3-2.2,1.9C192.7,23.6,192.3,22.5,192.3,21.5"/>
			<path d="M222.8,34.2h2.4c0,1.1-0.4,2.2-1.3,3.2c-1.1,1.3-2.9,1.9-5.2,1.9c-2.6,0-4.7-0.9-6.3-2.8c-1.7-1.8-2.5-4.6-2.5-8.1
				c0-3.7,0.8-6.4,2.5-8.1c1.6-1.8,3.7-2.7,6.3-2.7c2.3,0,3.9,0.5,5,1.6c1,1.2,1.1,1.8,1.1,1.8c0.2,0.9-0.4,1.7-1.3,1.7h-0.7
				c0-1-0.3-1.7-1-2.2c-0.7-0.5-1.7-0.8-3-0.8c-1.8,0-3.3,0.6-4.3,1.8c-1.3,1.7-1.9,4-1.9,7c0,3,0.6,5.4,1.9,7
				c1.1,1.3,2.5,1.9,4.2,1.9c1.3,0,2.3-0.3,3.1-0.8C222.5,35.9,222.8,35.2,222.8,34.2"/>
			<path d="M242.5,36.5c1.6-1.8,2.4-4.5,2.4-8c0-3.4-0.8-6.1-2.4-8.1c-1.6-1.8-3.7-2.7-6.2-2.7c-2.5,0-4.5,0.9-6.1,2.7
				c-1.7,1.8-2.5,4.5-2.5,8.1c0,3.5,0.8,6.2,2.4,8c1.6,1.9,3.7,2.9,6.2,2.9C238.8,39.3,240.9,38.4,242.5,36.5 M232.2,35.3
				c-1.3-1.6-1.9-3.9-1.9-6.9c0-3,0.6-5.3,1.9-6.9c1-1.3,2.3-1.9,4-1.9c1.8,0,3.1,0.6,4,1.9c1.3,1.6,1.9,3.9,1.9,6.9
				c0,3-0.6,5.3-1.9,6.9c-0.9,1.3-2.3,1.9-4,1.9C234.5,37.2,233.2,36.6,232.2,35.3"/>
			<path d="M258.9,34c-0.3,0.9-1.2,1.6-1.9,1.6c-0.7,0-1.6-0.7-2-1.6l-3.9-9.3c-0.4-0.9-0.7-0.8-0.7,0.1V37c0,0.9-0.5,1.7-1.2,1.7
				c-0.6,0-1.2-0.8-1.2-1.7V19.9c0-0.9,0.6-1.7,1.3-1.7c0.7,0,1.6,0.7,2,1.6l5,11.6c0.4,0.9,1,0.9,1.3,0l4.6-11.5
				c0.4-0.9,1.2-1.6,1.9-1.6c0.7,0,1.3,0.8,1.3,1.7V37c0,0.9-0.5,1.7-1.2,1.7c-0.6,0-1.2-0.8-1.2-1.7V24.5c0-0.9-0.3-1-0.6-0.1
				L258.9,34z"/>
			<path d="M280.5,28.6c1.3-1.3,2-2.9,2-4.9c0-2.1-0.7-3.6-2-4.6c-0.9-0.7-2.7-1.1-5.3-1.1h-4c-0.9,0-1.7,0.8-1.7,1.7V37
				c0,0.9,0.6,1.7,1.4,1.7c0.8,0,1.4-0.8,1.4-1.7v-4.7c0-0.9,0.8-1.7,1.7-1.7h0.8C277.2,30.5,279.1,29.9,280.5,28.6 M278.8,21.1
				c0.6,0.5,1,1.4,1,2.8c0,1.2-0.4,2.3-1.1,3.2c-0.8,1-2.3,1.5-4.7,1.5h-0.1c-0.9,0-1.7-0.8-1.7-1.7V22c0-0.9,0.8-1.7,1.7-1.7h1.4
				C276.8,20.3,278,20.6,278.8,21.1"/>
			<path d="M293.4,19.8c-0.3-0.9-1.2-1.6-2-1.6c-0.8,0-1.7,0.7-2,1.6l-7.1,17.4c-0.4,0.9-0.1,1.6,0.6,1.6c0.7,0,1.5-0.7,1.9-1.6
				l1-2.5c0.4-0.9,1.4-1.6,2.4-1.6h5.7c0.9,0,2,0.7,2.3,1.6l0.9,2.4c0.3,0.9,1.2,1.6,2,1.6c0.8,0,1.2-0.7,0.8-1.6L293.4,19.8z
				 M294.1,29.4c0.3,0.9-0.2,1.6-1.1,1.6h-4c-0.9,0-1.4-0.7-1.1-1.6l2.5-6.4c0.3-0.9,0.9-0.9,1.2,0L294.1,29.4z"/>
			<path d="M318.2,37c0,0.9-0.6,1.7-1.3,1.7c-0.7,0-1.7-0.6-2.2-1.4l-8.4-13.4c-0.5-0.8-0.9-0.7-0.9,0.3V37c0,0.9-0.6,1.7-1.3,1.7
				c-0.7,0-1.3-0.8-1.3-1.7V19.9c0-0.9,0.6-1.7,1.3-1.7c0.7,0,1.7,0.7,2.2,1.4l8.4,13.3c0.5,0.8,0.9,0.7,0.9-0.3V19.9
				c0-0.9,0.6-1.7,1.2-1.7c0.7,0,1.2,0.8,1.2,1.7V37z"/>
			<path d="M327.8,25c0.5,0.8,1.3,0.8,1.8,0l3.3-5.4c0.5-0.8,1.5-1.4,2.2-1.4c0.7,0,0.9,0.7,0.4,1.5l-4.8,8
				c-0.5,0.8-0.9,2.2-0.9,3.2V37c0,0.9-0.6,1.7-1.3,1.7c-0.7,0-1.3-0.8-1.3-1.7v-6.2c0-1-0.4-2.4-0.9-3.2l-4.9-8
				c-0.5-0.8-0.2-1.4,0.6-1.4c0.8,0,1.9,0.7,2.4,1.4L327.8,25z"/>
			<path d="M90.5,184.5c0.9,0,1.7,0.5,1.7,1.1c0,0.6-0.8,1.1-1.7,1.1h-4.8c-0.9,0-1.7,0.8-1.7,1.7v15c0,0.9-0.7,1.7-1.6,1.7
				c-0.9,0-1.6-0.8-1.6-1.7v-15c0-0.9-0.8-1.7-1.7-1.7h-5c-0.9,0-1.7-0.5-1.7-1.1c0-0.6,0.8-1.1,1.7-1.1H90.5z"/>
			<path d="M114.4,202.8c1.9-1.8,2.9-4.5,2.9-8c0-3.4-1-6.1-2.9-8.2c-1.9-1.8-4.4-2.7-7.5-2.7c-3,0-5.4,0.9-7.4,2.7
				c-2,1.8-3,4.5-3,8.2c0,3.5,1,6.2,2.9,8c1.9,1.9,4.4,2.9,7.5,2.9C110,205.7,112.5,204.7,114.4,202.8 M102,201.6
				c-1.5-1.6-2.3-3.9-2.3-6.9c0-3,0.8-5.3,2.3-6.9c1.2-1.3,2.8-1.9,4.8-1.9c2.1,0,3.7,0.6,4.8,1.9c1.5,1.6,2.3,3.8,2.3,6.9
				c0,3-0.8,5.3-2.3,6.9c-1.1,1.3-2.7,1.9-4.8,1.9C104.8,203.6,103.2,202.9,102,201.6"/>
			<path d="M131.6,193c-0.7,0.6-0.7,1.7,0,2.3l9.3,8.6c0.7,0.6,0.5,1.2-0.5,1.2h-0.6c-0.9,0-2.3-0.5-3-1.2l-8.9-8.3
				c-0.7-0.6-1.2-0.4-1.2,0.5v7.3c0,0.9-0.7,1.7-1.7,1.7c-0.9,0-1.7-0.8-1.7-1.7v-17.1c0-0.9,0.7-1.7,1.7-1.7c0.9,0,1.7,0.8,1.7,1.7
				v6.4c0,1,0.6,1.2,1.2,0.5l7.8-7.5c0.7-0.6,2-1.2,2.9-1.2h0.1c0.9,0,1.2,0.5,0.5,1.2L131.6,193z"/>
			<path d="M154.2,191.4c0.6,0.7,1.5,0.7,2,0l4.1-5.5c0.6-0.8,1.7-1.4,2.5-1.4c0.8,0,1.1,0.6,0.5,1.4l-5.9,8.1c-0.5,0.8-1,2.1-1,3.1
				v6.2c0,0.9-0.7,1.7-1.6,1.7c-0.9,0-1.6-0.8-1.6-1.7v-6.2c0-0.9-0.5-2.3-1-3.1l-6-8.2c-0.6-0.8-0.2-1.4,0.7-1.4h0.3
				c0.9,0,2.2,0.6,2.7,1.4L154.2,191.4z"/>
			<path d="M186.5,202.8c2-1.8,2.9-4.5,2.9-8c0-3.4-1-6.1-2.9-8.2c-1.9-1.8-4.4-2.7-7.5-2.7c-3,0-5.4,0.9-7.4,2.7
				c-2,1.8-3,4.5-3,8.2c0,3.5,1,6.2,2.9,8c1.9,1.9,4.4,2.9,7.5,2.9C182.1,205.7,184.6,204.7,186.5,202.8 M174.1,201.6
				c-1.5-1.6-2.3-3.9-2.3-6.9c0-3,0.8-5.3,2.3-6.9c1.2-1.3,2.8-1.9,4.8-1.9c2.1,0,3.7,0.6,4.8,1.9c1.5,1.6,2.3,3.8,2.3,6.9
				c0,3-0.8,5.3-2.3,6.9c-1.1,1.3-2.7,1.9-4.8,1.9C176.9,203.6,175.3,202.9,174.1,201.6"/>
			<path d="M201.5,197.6c-0.9,0-1.9-0.2-2.2-0.4c-0.3-0.2-0.5-1.1-0.5-1.9c0-0.8,0.2-1.7,0.5-1.9c0.3-0.2,1.3-0.4,2.2-0.4h0.1
				c0.9,0,1.9,0.2,2.2,0.4c0.3,0.2,0.5,1.1,0.5,1.9c0,0.8-0.2,1.7-0.5,1.9c-0.3,0.2-1.3,0.4-2.2,0.4H201.5z"/>
			<path d="M212.3,201.5h3.2c0,0.7,0.3,1.2,0.9,1.5c0.7,0.4,1.4,0.5,2.3,0.5c1.3,0,2.2-0.4,2.8-1.1c0.4-0.6,0.5-2.2,0.5-2.2
				c0.1-0.9,0.1-2.5,0.1-3.4v-10.7c0-0.9,0.7-1.7,1.7-1.7c0.9,0,1.6,0.8,1.6,1.7v12.5c0,1.6-0.2,2.9-0.6,4c-0.4,0.9-1.1,1.6-2,2.1
				c-1.2,0.6-2.5,0.8-3.8,0.8c-2.1,0-3.8-0.4-4.9-1.2C212.9,203.8,212.3,202.8,212.3,201.5"/>
			<path d="M244.5,186.1c-0.4-0.9-1.4-1.6-2.4-1.6c-0.9,0-2,0.7-2.4,1.5l-8.5,17.5c-0.4,0.8-0.1,1.5,0.7,1.5c0.8,0,1.8-0.7,2.2-1.5
				l1.3-2.6c0.4-0.8,1.5-1.5,2.5-1.5h7.5c0.9,0,2,0.7,2.4,1.5l1.1,2.5c0.4,0.9,1.5,1.6,2.4,1.6h0c0.9,0,1.4-0.7,1-1.6L244.5,186.1z
				 M245.4,195.8c0.4,0.8-0.1,1.5-1,1.5h-5.5c-0.9,0-1.4-0.7-1-1.5l3.1-6.5c0.4-0.8,1.1-0.8,1.4,0L245.4,195.8z"/>
			<path d="M271.3,195c1.6-1.3,2.4-2.9,2.4-4.9c0-2.1-0.8-3.6-2.4-4.6c-1.1-0.7-3.2-1.1-6.3-1.1h-5.1c-0.9,0-1.7,0.8-1.7,1.7v17.1
				c0,0.9,0.7,1.7,1.6,1.7c0.9,0,1.7-0.8,1.7-1.7v-4.7c0-0.9,0.8-1.7,1.7-1.7h1.3C267.5,196.9,269.7,196.3,271.3,195 M269.3,187.5
				c0.8,0.5,1.1,1.4,1.1,2.8c0,1.2-0.4,2.3-1.3,3.2c-0.9,1-2.8,1.5-5.6,1.5h-0.5c-0.9,0-1.7-0.8-1.7-1.7v-4.8c0-0.9,0.8-1.7,1.7-1.7
				h2C267,186.6,268.4,186.9,269.3,187.5"/>
			<path d="M291.6,186.1c-0.4-0.9-1.4-1.6-2.3-1.6c-0.9,0-2,0.7-2.4,1.5l-8.5,17.5c-0.4,0.8-0.1,1.5,0.7,1.5c0.8,0,1.8-0.7,2.2-1.5
				l1.3-2.6c0.4-0.8,1.5-1.5,2.5-1.5h7.5c0.9,0,2,0.7,2.4,1.5l1.1,2.5c0.4,0.9,1.5,1.6,2.4,1.6h0c0.9,0,1.4-0.7,1-1.6L291.6,186.1z
				 M292.5,195.8c0.4,0.8-0.1,1.5-1,1.5H286c-0.9,0-1.4-0.7-1-1.5l3.1-6.5c0.4-0.8,1-0.8,1.4,0L292.5,195.8z"/>
			<path d="M323.6,203.3c0,0.9-0.7,1.7-1.6,1.7c-0.9,0-2-0.6-2.6-1.4l-10.1-13.6c-0.6-0.7-1-0.6-1,0.3v12.9c0,0.9-0.7,1.7-1.5,1.7
				c-0.9,0-1.5-0.8-1.5-1.7v-17.1c0-0.9,0.7-1.7,1.6-1.7c0.9,0,2.1,0.6,2.6,1.4l10.2,13.5c0.6,0.8,1,0.6,1-0.3v-12.8
				c0-0.9,0.7-1.7,1.5-1.7c0.8,0,1.5,0.8,1.5,1.7V203.3z"/>
			<path d="M101.3,106.8c3.1,0,4.3-3.1,4.3-5c0-3.2-1.6-6-4.6-6c-1.2,0-1.9,0-1.9,0.8v9C99.1,106.8,99.8,106.8,101.3,106.8
				 M87.4,98.1c0-3.9-5-2.4-5.4-5.1c0-2,1.6-2.4,3.7-2.4c1.4,0,3.2,0.1,4.7,0.1c2.7,0,10.1-0.8,13.5-0.8c3.1,0,13.2,2.4,13.2,11v0.4
				c0,6.1-4.5,10.8-13.2,11.2c-0.6,0-2.8-0.3-4-0.3c-0.6,0-0.9,0.1-0.9,0.3v4.3c0,4.3,3.9,2.7,3.9,5.4c0,2.4-4.3,3.5-10.1,3.5
				c-5.7,0-9.2-0.8-9.2-3.5c0.4-2.7,3.8-0.7,3.8-5.4v-9.7V98.1z"/>
			<path d="M145.5,113.5c0-4.3-1.8-10.6-4.7-14.2c-0.6-1-2.4-1.9-3.8-1.9c-1.7,0-3.5,1.3-3.8,4.7c0,0.3-0.1,0.8-0.1,1.1
				c0,4.1,2.2,9.3,4,12.2c1.2,2.1,2.8,3,4.3,3c2.1,0,4.1-1.7,4.3-3.8V113.5z M139,89.5c9,0,19.2,5.8,19.2,18.4v1.2
				c0,9.6-9.7,16.7-19,16.7c-5.4,0-18.5-1.9-19.3-18.7C120.5,95.7,129.8,89.5,139,89.5"/>
			<path d="M176.6,104.4c-0.1,0.4,0.7,0.8,1.4,0.8c1.5,0,3.9-1.2,3.9-4.7c0-3.5-2-5.1-3.5-5.1c-0.8,0-1.5,0.6-1.5,1.6L176.6,104.4z
				 M165,99.3c0-5.5-3.8-3.7-3.8-6.2v-0.4c0-2.6,3.2-3.1,6.2-3.1c2.6,0,5.5,0.4,6.9,0.4c1.9-0.1,4-0.3,5.9-0.3
				c7.3,0,14.6,1.9,14.6,10c0,4.7-5,6.3-5,7.5l0,0.3c0,1.6,4.8,0.6,5.8,5.6c1.1,3.1,0.7,6.6,2.7,7c1.3,0.1,2.2,1.2,2.2,2.2
				c0,1.8-2.2,4-7.6,4c-4.6,0-7.9-1.5-9.3-5.4c-1.2-3.2-1.3-10.2-5.2-10.2h-0.6c-0.8,0-1.2,1.5-1.2,3.1c0,1.4,0.3,3,0.4,4.4
				c0.1,2.1,3,2,3,4.2v0.4c-0.4,3.1-6.5,3.1-8.9,3.1c-2.6,0-9.7-0.4-9.7-3.6l0.1-0.3c0.4-2.7,3.4-0.8,3.4-6.6V99.3z"/>
			<path d="M226.8,115.7c0,5.4,4.7,2.7,4.7,6.2c0,2.7-3.1,3.9-10.8,3.9c-3.4,0-11.3,0-11.3-3.6l0.1-0.3c0.4-3.5,4.2-0.4,4.6-6.2
				c0.2-3.5,0.5-8.4,0.5-12.1c0-1.5,0-3.1-0.1-4c0-1.5-0.6-2.2-1.3-2.2c-0.6,0-1.5,0.6-2.2,1.4c-0.7,0.7-2.1,4.5-5,4.5
				c-0.2,0-0.5-0.1-0.7-0.1c-1.5-0.3-2.3-2.1-2.3-4.3c0-2.5,1.1-5.6,3.1-7.4c1.6-1.5,2.5-1.9,3.1-1.9c0.8,0,1.5,0.7,3.4,0.7h16.7
				c1.7,0,2.7-0.6,3.6-0.6c0.7,0,1.6,0.3,2.9,1.4c1.6,1.4,3.5,5.3,3.5,8.2c0,1.6-0.6,3.1-1.9,3.5c-0.6,0.3-1.4,0.5-2,0.5
				c-2.2,0-3.5-2-4.1-3.3c-0.8-1.7-2.1-2.6-2.9-2.6c-0.8,0-1.4,0.8-1.4,2.2v8.6V115.7z"/>
			<path d="M245.1,97.8c-0.5-3.9-3.8-2.4-3.8-4.7c0-0.1-0.1-0.2-0.1-0.4c0-1.6,1.9-2.7,4.3-2.7h17.7c0.5,0,1.1,0.1,1.4,0.1
				c3.5,0,4.6-1,5.6-1c0.2,0,0.5,0,0.7,0.1c1.5,0.9,2.8,4.4,2.8,7c0,2-0.7,3.5-2.4,3.5c0,0-0.4,0.1-0.5,0.1c-3.2,0-1-4.7-9.6-4.7
				c-4.6,0-5,2-5,4.3c0,1.8,0,5.2,1.9,5.2c0.1,0,0.3-0.1,0.4-0.1c0.1,0,0.4,0.1,0.5,0.1c4.5,0,0.9-5.3,4.5-5.6
				c3.2,0.4,3.5,5.2,3.5,7.5c0,1.9,0,8.2-3.5,8.2c-0.1,0-0.4,0.1-0.4,0.1c-2.6,0-0.2-5.2-4.3-5.2c-1.9,0-2.3,1.5-2.3,5.1
				c0,4.9,1.6,5.5,3.5,5.5c0.7,0,1.5-0.1,2.2-0.1c9.3,0,7-7,10.8-7.4c1.9,0,2.7,1.6,2.7,3.6c0,3.8-2.8,9.7-4.2,9.7
				c-1.5,0-4.2-0.8-8.2-0.8h-17c-0.5,0-1.2,0.1-1.7,0.1c-1.9,0-3.3-0.4-3.3-2.4c0.7-2,2.7-1.2,3.4-4.3c0.5-2.3,0.9-6.5,0.9-9.4
				c0-1.1-0.1-2.1-0.1-2.7C245.7,102.9,245.4,100.5,245.1,97.8"/>
			<path d="M293.9,104.4c0,0.4,0.7,0.8,1.4,0.8c1.5,0,4-1.2,4-4.7c0-3.5-2-5.1-3.5-5.1c-0.9,0-1.5,0.6-1.5,1.6L293.9,104.4z
				 M282.3,99.3c0-5.5-3.8-3.7-3.8-6.2v-0.4c0-2.6,3.1-3.1,6.2-3.1c2.6,0,5.5,0.4,6.9,0.4c1.8-0.1,4-0.3,5.9-0.3
				c7.3,0,14.6,1.9,14.6,10c0,4.7-5,6.3-5,7.5l-0.1,0.3c0,1.6,4.8,0.6,5.9,5.6c1.1,3.1,0.7,6.6,2.7,7c1.3,0.1,2.2,1.2,2.2,2.2
				c0,1.8-2.2,4-7.6,4c-4.6,0-7.9-1.5-9.3-5.4c-1.2-3.2-1.3-10.2-5.2-10.2h-0.6c-0.8,0-1.2,1.5-1.2,3.1c0,1.4,0.3,3,0.4,4.4
				c0.1,2.1,3.1,2,3.1,4.2v0.4c-0.4,3.1-6.5,3.1-8.9,3.1c-2.6,0-9.7-0.4-9.7-3.6l0.1-0.3c0.4-2.7,3.4-0.8,3.4-6.6V99.3z"/>
			<path d="M71.5,79.7h257.1v61H71.5V79.7z M200,175.3l-53-30.8H253L200,175.3z M200,45.1l53,30.8H147L200,45.1z M260.5,75.9
				L200,40.8l-60.5,35.1H67.7v68.5h71.8l60.5,35.1l60.5-35.1h71.8V75.9H260.5z"/>
		</g>
	</g>
</g>
</svg>
